<svg width="43" height="43" viewBox="0 0 43 43" fill="none" xmlns="http://www.w3.org/2000/svg">
<path d="M41.9344 10.9508C41.7898 10.4131 41.437 9.95474 40.9543 9.67683C40.4713 9.39755 39.8971 9.322 39.3583 9.4666C38.8203 9.61154 38.3619 9.96397 38.084 10.4466L37.7339 11.0558C37.4013 10.8647 36.9764 10.9772 36.7819 11.3081L35.0037 14.3391L34.3946 13.9891C34.2332 13.8957 34.0411 13.8704 33.8613 13.919C33.6812 13.9679 33.528 14.0861 33.4354 14.2482C33.2457 14.5828 33.3612 15.0081 33.6945 15.2002L34.3036 15.5502L28.353 25.8623L26.8828 29.7899L26.1827 31.0988C25.7729 31.8119 25.8166 32.6983 26.2948 33.3672L24.7197 35.2993L24.2787 34.1934C24.0798 33.7005 23.6193 33.3628 23.0898 33.3214C22.56 33.2797 22.0523 33.5416 21.7792 33.9972L21.5273 34.4242L21.2894 31.6239C21.2347 30.9614 20.7216 30.4288 20.0618 30.3488C19.4018 30.2692 18.7769 30.6647 18.566 31.295L16.8438 36.4615C16.7235 36.8269 16.9204 37.2207 17.2848 37.3438C17.3532 37.3756 17.4267 37.3947 17.5019 37.3995C17.8027 37.4005 18.0707 37.2087 18.1671 36.9237L19.882 31.7572L20.1271 34.5992C20.1777 35.2056 20.6136 35.7098 21.2063 35.8472C21.799 35.9846 22.4123 35.7235 22.7244 35.2015L22.9835 34.7742L23.4176 35.8735C23.6019 36.3367 24.0186 36.6673 24.5118 36.7408C25.0051 36.8143 25.5001 36.6198 25.8118 36.2304L27.443 34.1654C27.6235 34.2126 27.8095 34.2362 27.9961 34.2355C28.7465 34.2413 29.4431 33.8461 29.8232 33.199L30.5233 32.03L33.1906 28.7887L39.2042 18.3505L39.8133 18.7005C39.9757 18.7935 40.0939 18.947 40.1421 19.1278C40.1907 19.3073 40.1654 19.4987 40.0724 19.6597L37.2721 24.5114C37.1665 24.6707 37.1306 24.8662 37.173 25.0528C37.2154 25.2391 37.3319 25.4001 37.496 25.4982C37.6574 25.5919 37.8495 25.6172 38.0293 25.5686C38.2094 25.5198 38.3626 25.4015 38.4552 25.2395L41.2555 20.3878C41.5348 19.9048 41.6103 19.3305 41.4654 18.7918C41.3204 18.2538 40.968 17.7954 40.4853 17.5175L39.8762 17.1674L41.6264 14.136C41.8175 13.8034 41.705 13.3789 41.3745 13.184L41.7245 12.5749C42.0113 12.0844 42.0872 11.4985 41.9344 10.9508ZM39.2951 11.1467C39.3877 10.9847 39.5415 10.8661 39.7224 10.8179C39.9022 10.7734 40.0922 10.7984 40.2543 10.8879C40.4166 10.9806 40.5349 11.1344 40.5835 11.3149C40.6279 11.4947 40.6029 11.6848 40.5134 11.8468L40.1633 12.4559L38.945 11.7559L39.2951 11.1467ZM29.7532 30.6931L29.4031 30.49L28.367 29.8877L29.3611 27.2276L31.5662 28.5016L29.7532 30.6931ZM27.6529 32.716C27.3572 32.5099 27.2663 32.1134 27.443 31.7989L27.7931 31.1901L29.011 31.8902L28.661 32.4921C28.5629 32.6624 28.3981 32.7834 28.2064 32.8261C28.0146 32.8685 27.8139 32.8288 27.6529 32.716ZM32.3644 27.3537L29.9422 25.9536L35.5428 16.2503L37.965 17.6504L32.3644 27.3537ZM38.6651 16.4393L36.2429 15.0392L37.643 12.6169L40.0652 14.0171L38.6651 16.4393Z" fill="black"/>
<path d="M41.9344 10.9508C41.7898 10.4131 41.437 9.95474 40.9543 9.67683C40.4713 9.39755 39.8971 9.322 39.3583 9.4666C38.8203 9.61154 38.3619 9.96397 38.084 10.4466L37.7339 11.0558C37.4013 10.8647 36.9764 10.9772 36.7819 11.3081L35.0037 14.3391L34.3946 13.9891C34.2332 13.8957 34.0411 13.8704 33.8613 13.919C33.6812 13.9679 33.528 14.0861 33.4354 14.2482C33.2457 14.5828 33.3612 15.0081 33.6945 15.2002L34.3036 15.5502L28.353 25.8623L26.8828 29.7899L26.1827 31.0988C25.7729 31.8119 25.8166 32.6983 26.2948 33.3672L24.7197 35.2993L24.2787 34.1934C24.0798 33.7005 23.6193 33.3628 23.0898 33.3214C22.56 33.2797 22.0523 33.5416 21.7792 33.9972L21.5273 34.4242L21.2894 31.6239C21.2347 30.9614 20.7216 30.4288 20.0618 30.3488C19.4018 30.2692 18.7769 30.6647 18.566 31.295L16.8438 36.4615C16.7235 36.8269 16.9204 37.2207 17.2848 37.3438C17.3532 37.3756 17.4267 37.3947 17.5019 37.3995C17.8027 37.4005 18.0707 37.2087 18.1671 36.9237L19.882 31.7572L20.1271 34.5992C20.1777 35.2056 20.6136 35.7098 21.2063 35.8472C21.799 35.9846 22.4123 35.7235 22.7244 35.2015L22.9835 34.7742L23.4176 35.8735C23.6019 36.3367 24.0186 36.6673 24.5118 36.7408C25.0051 36.8143 25.5001 36.6198 25.8118 36.2304L27.443 34.1654C27.6235 34.2126 27.8095 34.2362 27.9961 34.2355C28.7465 34.2413 29.4431 33.8461 29.8232 33.199L30.5233 32.03L33.1906 28.7887L39.2042 18.3505L39.8133 18.7005C39.9757 18.7935 40.0939 18.947 40.1421 19.1278C40.1907 19.3073 40.1654 19.4987 40.0724 19.6597L37.2721 24.5114C37.1665 24.6707 37.1306 24.8662 37.173 25.0528C37.2154 25.2391 37.3319 25.4001 37.496 25.4982C37.6574 25.5919 37.8495 25.6172 38.0293 25.5686C38.2094 25.5198 38.3626 25.4015 38.4552 25.2395L41.2555 20.3878C41.5348 19.9048 41.6103 19.3305 41.4654 18.7918C41.3204 18.2538 40.968 17.7954 40.4853 17.5175L39.8762 17.1674L41.6264 14.136C41.8175 13.8034 41.705 13.3789 41.3745 13.184L41.7245 12.5749C42.0113 12.0844 42.0872 11.4985 41.9344 10.9508ZM39.2951 11.1467C39.3877 10.9847 39.5415 10.8661 39.7224 10.8179C39.9022 10.7734 40.0922 10.7984 40.2543 10.8879C40.4166 10.9806 40.5349 11.1344 40.5835 11.3149C40.6279 11.4947 40.6029 11.6848 40.5134 11.8468L40.1633 12.4559L38.945 11.7559L39.2951 11.1467ZM29.7532 30.6931L29.4031 30.49L28.367 29.8877L29.3611 27.2276L31.5662 28.5016L29.7532 30.6931ZM27.6529 32.716C27.3572 32.5099 27.2663 32.1134 27.443 31.7989L27.7931 31.1901L29.011 31.8902L28.661 32.4921C28.5629 32.6624 28.3981 32.7834 28.2064 32.8261C28.0146 32.8685 27.8139 32.8288 27.6529 32.716ZM32.3644 27.3537L29.9422 25.9536L35.5428 16.2503L37.965 17.6504L32.3644 27.3537ZM38.6651 16.4393L36.2429 15.0392L37.643 12.6169L40.0652 14.0171L38.6651 16.4393Z" fill="url(#paint0_linear)"/>
<path d="M11.047 32.3658L8.56908 34.8373L7.08484 33.3531C6.81171 33.0816 6.37075 33.0816 6.09762 33.3531C5.96499 33.4847 5.89047 33.6634 5.89047 33.8501C5.89047 34.0367 5.96499 34.2158 6.09762 34.3471L7.58186 35.8313C7.84439 36.0918 8.19921 36.2378 8.56908 36.2374C8.94099 36.2395 9.29889 36.0935 9.56313 35.8313L12.0342 33.3531C12.2722 33.0751 12.2561 32.6612 11.9977 32.4028C11.7389 32.144 11.3249 32.1279 11.047 32.3658Z" fill="black"/>
<path d="M11.047 32.3658L8.56908 34.8373L7.08484 33.3531C6.81171 33.0816 6.37075 33.0816 6.09762 33.3531C5.96499 33.4847 5.89047 33.6634 5.89047 33.8501C5.89047 34.0367 5.96499 34.2158 6.09762 34.3471L7.58186 35.8313C7.84439 36.0918 8.19921 36.2378 8.56908 36.2374C8.94099 36.2395 9.29889 36.0935 9.56313 35.8313L12.0342 33.3531C12.2722 33.0751 12.2561 32.6612 11.9977 32.4028C11.7389 32.144 11.3249 32.1279 11.047 32.3658Z" fill="url(#paint1_linear)"/>
<path d="M2.8003 34.2493C2.8003 37.536 5.46455 40.1999 8.75093 40.1999C12.0373 40.1999 14.7016 37.536 14.7016 34.2493C14.7016 33.8627 14.3881 33.5492 14.0015 33.5492C13.6149 33.5492 13.3014 33.8627 13.3014 34.2493C13.3014 36.7624 11.2641 38.7998 8.75093 38.7998C6.23777 38.7998 4.20045 36.7624 4.20045 34.2493C4.20045 31.7361 6.23777 29.6988 8.75093 29.6988C9.73609 29.6961 10.6949 30.0157 11.4812 30.6091C11.7905 30.8412 12.2294 30.7783 12.4612 30.4689C12.6933 30.1596 12.6307 29.721 12.3214 29.4889C10.5182 28.1366 8.10555 27.9192 6.08976 28.9269C4.07363 29.935 2.8003 31.9956 2.8003 34.2493Z" fill="black"/>
<path d="M2.8003 34.2493C2.8003 37.536 5.46455 40.1999 8.75093 40.1999C12.0373 40.1999 14.7016 37.536 14.7016 34.2493C14.7016 33.8627 14.3881 33.5492 14.0015 33.5492C13.6149 33.5492 13.3014 33.8627 13.3014 34.2493C13.3014 36.7624 11.2641 38.7998 8.75093 38.7998C6.23777 38.7998 4.20045 36.7624 4.20045 34.2493C4.20045 31.7361 6.23777 29.6988 8.75093 29.6988C9.73609 29.6961 10.6949 30.0157 11.4812 30.6091C11.7905 30.8412 12.2294 30.7783 12.4612 30.4689C12.6933 30.1596 12.6307 29.721 12.3214 29.4889C10.5182 28.1366 8.10555 27.9192 6.08976 28.9269C4.07363 29.935 2.8003 31.9956 2.8003 34.2493Z" fill="url(#paint2_linear)"/>
<path d="M25.2027 6.59619C25.5893 6.59619 25.9027 6.28307 25.9027 5.89612C25.9027 5.50951 25.5893 5.19604 25.2027 5.19604H7.00074C6.61413 5.19604 6.30067 5.50951 6.30067 5.89612V8.69642C6.30067 9.08337 6.61413 9.39649 7.00074 9.39649H25.2027C25.5893 9.39649 25.9027 9.08337 25.9027 8.69642C25.9027 8.3098 25.5893 7.99634 25.2027 7.99634H7.70082V6.59619H25.2027Z" fill="black"/>
<path d="M25.2027 6.59619C25.5893 6.59619 25.9027 6.28307 25.9027 5.89612C25.9027 5.50951 25.5893 5.19604 25.2027 5.19604H7.00074C6.61413 5.19604 6.30067 5.50951 6.30067 5.89612V8.69642C6.30067 9.08337 6.61413 9.39649 7.00074 9.39649H25.2027C25.5893 9.39649 25.9027 9.08337 25.9027 8.69642C25.9027 8.3098 25.5893 7.99634 25.2027 7.99634H7.70082V6.59619H25.2027Z" fill="url(#paint3_linear)"/>
<path d="M9.10096 10.7966C8.71435 10.7966 8.40089 11.1101 8.40089 11.4967C8.40089 11.8837 8.71435 12.1968 9.10096 12.1968H23.1024C23.4891 12.1968 23.8025 11.8837 23.8025 11.4967C23.8025 11.1101 23.4891 10.7966 23.1024 10.7966H9.10096Z" fill="black"/>
<path d="M9.10096 10.7966C8.71435 10.7966 8.40089 11.1101 8.40089 11.4967C8.40089 11.8837 8.71435 12.1968 9.10096 12.1968H23.1024C23.4891 12.1968 23.8025 11.8837 23.8025 11.4967C23.8025 11.1101 23.4891 10.7966 23.1024 10.7966H9.10096Z" fill="url(#paint4_linear)"/>
<path d="M27.3029 15.697H11.9013C11.5146 15.697 11.2012 16.0105 11.2012 16.3971C11.2012 16.7841 11.5146 17.0972 11.9013 17.0972H27.3029C27.6895 17.0972 28.003 16.7841 28.003 16.3971C28.003 16.0105 27.6895 15.697 27.3029 15.697Z" fill="black"/>
<path d="M27.3029 15.697H11.9013C11.5146 15.697 11.2012 16.0105 11.2012 16.3971C11.2012 16.7841 11.5146 17.0972 11.9013 17.0972H27.3029C27.6895 17.0972 28.003 16.7841 28.003 16.3971C28.003 16.0105 27.6895 15.697 27.3029 15.697Z" fill="url(#paint5_linear)"/>
<path d="M20.3022 20.5978C20.3022 20.2112 19.9887 19.8977 19.6021 19.8977H5.60059C5.21398 19.8977 4.90052 20.2112 4.90052 20.5978C4.90052 20.9847 5.21398 21.2979 5.60059 21.2979H19.6021C19.9887 21.2979 20.3022 20.9847 20.3022 20.5978Z" fill="black"/>
<path d="M20.3022 20.5978C20.3022 20.2112 19.9887 19.8977 19.6021 19.8977H5.60059C5.21398 19.8977 4.90052 20.2112 4.90052 20.5978C4.90052 20.9847 5.21398 21.2979 5.60059 21.2979H19.6021C19.9887 21.2979 20.3022 20.9847 20.3022 20.5978Z" fill="url(#paint6_linear)"/>
<path d="M27.3029 19.8977H22.4024C22.0158 19.8977 21.7023 20.2112 21.7023 20.5978C21.7023 20.9847 22.0158 21.2979 22.4024 21.2979H27.3029C27.6895 21.2979 28.003 20.9847 28.003 20.5978C28.003 20.2112 27.6895 19.8977 27.3029 19.8977Z" fill="black"/>
<path d="M27.3029 19.8977H22.4024C22.0158 19.8977 21.7023 20.2112 21.7023 20.5978C21.7023 20.9847 22.0158 21.2979 22.4024 21.2979H27.3029C27.6895 21.2979 28.003 20.9847 28.003 20.5978C28.003 20.2112 27.6895 19.8977 27.3029 19.8977Z" fill="url(#paint7_linear)"/>
<path d="M12.6013 24.7981C12.9879 24.7981 13.3014 24.485 13.3014 24.098C13.3014 23.7114 12.9879 23.3979 12.6013 23.3979H5.60059C5.21398 23.3979 4.90052 23.7114 4.90052 24.098C4.90052 24.485 5.21398 24.7981 5.60059 24.7981H12.6013Z" fill="black"/>
<path d="M12.6013 24.7981C12.9879 24.7981 13.3014 24.485 13.3014 24.098C13.3014 23.7114 12.9879 23.3979 12.6013 23.3979H5.60059C5.21398 23.3979 4.90052 23.7114 4.90052 24.098C4.90052 24.485 5.21398 24.7981 5.60059 24.7981H12.6013Z" fill="url(#paint8_linear)"/>
<path d="M15.4016 24.7981H20.3022C20.6888 24.7981 21.0022 24.485 21.0022 24.098C21.0022 23.7114 20.6888 23.3979 20.3022 23.3979H15.4016C15.015 23.3979 14.7016 23.7114 14.7016 24.098C14.7016 24.485 15.015 24.7981 15.4016 24.7981Z" fill="black"/>
<path d="M15.4016 24.7981H20.3022C20.6888 24.7981 21.0022 24.485 21.0022 24.098C21.0022 23.7114 20.6888 23.3979 20.3022 23.3979H15.4016C15.015 23.3979 14.7016 23.7114 14.7016 24.098C14.7016 24.485 15.015 24.7981 15.4016 24.7981Z" fill="url(#paint9_linear)"/>
<path d="M31.5033 33.199C31.1167 33.199 30.8033 33.5125 30.8033 33.8991V40.8998C30.8033 41.2868 30.4898 41.5999 30.1032 41.5999H2.10022C1.71361 41.5999 1.40015 41.2868 1.40015 40.8998V3.09583C1.40015 2.70921 1.71361 2.39575 2.10022 2.39575H30.1032C30.4898 2.39575 30.8033 2.70921 30.8033 3.09583V16.2434C30.8033 16.63 31.1167 16.9435 31.5033 16.9435C31.8899 16.9435 32.2034 16.63 32.2034 16.2434V3.09583C32.2034 1.93599 31.263 0.995605 30.1032 0.995605H2.10022C0.940383 0.995605 0 1.93599 0 3.09583V40.8998C0 42.06 0.940383 43.0001 2.10022 43.0001H30.1032C31.263 43.0001 32.2034 42.06 32.2034 40.8998V33.8991C32.2034 33.5125 31.8899 33.199 31.5033 33.199Z" fill="black"/>
<path d="M31.5033 33.199C31.1167 33.199 30.8033 33.5125 30.8033 33.8991V40.8998C30.8033 41.2868 30.4898 41.5999 30.1032 41.5999H2.10022C1.71361 41.5999 1.40015 41.2868 1.40015 40.8998V3.09583C1.40015 2.70921 1.71361 2.39575 2.10022 2.39575H30.1032C30.4898 2.39575 30.8033 2.70921 30.8033 3.09583V16.2434C30.8033 16.63 31.1167 16.9435 31.5033 16.9435C31.8899 16.9435 32.2034 16.63 32.2034 16.2434V3.09583C32.2034 1.93599 31.263 0.995605 30.1032 0.995605H2.10022C0.940383 0.995605 0 1.93599 0 3.09583V40.8998C0 42.06 0.940383 43.0001 2.10022 43.0001H30.1032C31.263 43.0001 32.2034 42.06 32.2034 40.8998V33.8991C32.2034 33.5125 31.8899 33.199 31.5033 33.199Z" fill="url(#paint10_linear)"/>
<defs>
<linearGradient id="paint0_linear" x1="28.6125" y1="-11.6088" x2="33.0568" y2="36.9935" gradientUnits="userSpaceOnUse">
<stop stop-color="#FCEABB"/>
<stop offset="1" stop-color="#E9C154"/>
</linearGradient>
<linearGradient id="paint1_linear" x1="8.84679" y1="29.1675" x2="9.21814" y2="36.218" gradientUnits="userSpaceOnUse">
<stop stop-color="#FCEABB"/>
<stop offset="1" stop-color="#E9C154"/>
</linearGradient>
<linearGradient id="paint2_linear" x1="8.37431" y1="19.373" x2="10.0767" y2="40.06" gradientUnits="userSpaceOnUse">
<stop stop-color="#FCEABB"/>
<stop offset="1" stop-color="#E9C154"/>
</linearGradient>
<linearGradient id="paint3_linear" x1="15.4814" y1="2.04571" x2="15.611" y2="9.39426" gradientUnits="userSpaceOnUse">
<stop stop-color="#FCEABB"/>
<stop offset="1" stop-color="#E9C154"/>
</linearGradient>
<linearGradient id="paint4_linear" x1="15.6143" y1="9.74652" x2="15.6326" y2="12.1967" gradientUnits="userSpaceOnUse">
<stop stop-color="#FCEABB"/>
<stop offset="1" stop-color="#E9C154"/>
</linearGradient>
<linearGradient id="paint5_linear" x1="19.0704" y1="14.6469" x2="19.0872" y2="17.0971" gradientUnits="userSpaceOnUse">
<stop stop-color="#FCEABB"/>
<stop offset="1" stop-color="#E9C154"/>
</linearGradient>
<linearGradient id="paint6_linear" x1="12.1139" y1="18.8476" x2="12.1323" y2="21.2977" gradientUnits="userSpaceOnUse">
<stop stop-color="#FCEABB"/>
<stop offset="1" stop-color="#E9C154"/>
</linearGradient>
<linearGradient id="paint7_linear" x1="24.6532" y1="18.8476" x2="24.698" y2="21.2971" gradientUnits="userSpaceOnUse">
<stop stop-color="#FCEABB"/>
<stop offset="1" stop-color="#E9C154"/>
</linearGradient>
<linearGradient id="paint8_linear" x1="8.83511" y1="22.3478" x2="8.86872" y2="24.7977" gradientUnits="userSpaceOnUse">
<stop stop-color="#FCEABB"/>
<stop offset="1" stop-color="#E9C154"/>
</linearGradient>
<linearGradient id="paint9_linear" x1="17.6525" y1="22.3478" x2="17.6973" y2="24.7973" gradientUnits="userSpaceOnUse">
<stop stop-color="#FCEABB"/>
<stop offset="1" stop-color="#E9C154"/>
</linearGradient>
<linearGradient id="paint10_linear" x1="15.0826" y1="-30.5077" x2="22.8832" y2="42.1633" gradientUnits="userSpaceOnUse">
<stop stop-color="#FCEABB"/>
<stop offset="1" stop-color="#E9C154"/>
</linearGradient>
</defs>
</svg>
