<svg width="17" height="12" viewBox="0 0 17 12" fill="none" xmlns="http://www.w3.org/2000/svg">
<path d="M0.542113 1.21456L7.62544 5.01972C7.86344 5.14722 8.17133 5.20767 8.48111 5.20767C8.79089 5.20767 9.09878 5.14722 9.33678 5.01972L16.4201 1.21456C16.8819 0.966166 17.3183 0 16.4711 0H0.492057C-0.35511 0 0.0812237 0.966166 0.542113 1.21456ZM16.6345 3.29517L9.33678 7.09844C9.01567 7.26655 8.79089 7.28639 8.48111 7.28639C8.17133 7.28639 7.94656 7.26655 7.62544 7.09844C7.30433 6.93033 0.888724 3.56717 0.364557 3.29422C-0.00377621 3.10155 1.52628e-06 3.32728 1.52628e-06 3.50105V10.3889C1.52628e-06 10.7856 0.534557 11.3333 0.944446 11.3333H16.0556C16.4654 11.3333 17 10.7856 17 10.3889V3.502C17 3.32822 17.0038 3.1025 16.6345 3.29517Z" fill="white"/>
<path d="M0.542113 1.21456L7.62544 5.01972C7.86344 5.14722 8.17133 5.20767 8.48111 5.20767C8.79089 5.20767 9.09878 5.14722 9.33678 5.01972L16.4201 1.21456C16.8819 0.966166 17.3183 0 16.4711 0H0.492057C-0.35511 0 0.0812237 0.966166 0.542113 1.21456ZM16.6345 3.29517L9.33678 7.09844C9.01567 7.26655 8.79089 7.28639 8.48111 7.28639C8.17133 7.28639 7.94656 7.26655 7.62544 7.09844C7.30433 6.93033 0.888724 3.56717 0.364557 3.29422C-0.00377621 3.10155 1.52628e-06 3.32728 1.52628e-06 3.50105V10.3889C1.52628e-06 10.7856 0.534557 11.3333 0.944446 11.3333H16.0556C16.4654 11.3333 17 10.7856 17 10.3889V3.502C17 3.32822 17.0038 3.1025 16.6345 3.29517Z" fill="url(#paint0_linear)"/>
<defs>
<linearGradient id="paint0_linear" x1="7.96482" y1="-10.119" x2="7.96482" y2="11.3333" gradientUnits="userSpaceOnUse">
<stop stop-color="#FCEABB"/>
<stop offset="1" stop-color="#E9C154"/>
</linearGradient>
</defs>
</svg>
