<svg width="17" height="14" viewBox="0 0 17 14" fill="none" xmlns="http://www.w3.org/2000/svg">
<path d="M0 0V1.2439C0 4.68537 1.83268 7.69561 4.56098 9.37073V13.2683H17V11.6098C17 9.4039 12.58 8.29268 10.3659 8.29268H10.1585C6.21951 8.29268 2.90244 4.97561 2.90244 1.2439V0H0ZM10.3659 0C9.48611 0 8.6424 0.349476 8.02033 0.971548C7.39826 1.59362 7.04878 2.43733 7.04878 3.31707C7.04878 4.19682 7.39826 5.04053 8.02033 5.6626C8.6424 6.28467 9.48611 6.63415 10.3659 6.63415C11.2456 6.63415 12.0893 6.28467 12.7114 5.6626C13.3334 5.04053 13.6829 4.19682 13.6829 3.31707C13.6829 2.43733 13.3334 1.59362 12.7114 0.971548C12.0893 0.349476 11.2456 0 10.3659 0Z" fill="white"/>
<path d="M0 0V1.2439C0 4.68537 1.83268 7.69561 4.56098 9.37073V13.2683H17V11.6098C17 9.4039 12.58 8.29268 10.3659 8.29268H10.1585C6.21951 8.29268 2.90244 4.97561 2.90244 1.2439V0H0ZM10.3659 0C9.48611 0 8.6424 0.349476 8.02033 0.971548C7.39826 1.59362 7.04878 2.43733 7.04878 3.31707C7.04878 4.19682 7.39826 5.04053 8.02033 5.6626C8.6424 6.28467 9.48611 6.63415 10.3659 6.63415C11.2456 6.63415 12.0893 6.28467 12.7114 5.6626C13.3334 5.04053 13.6829 4.19682 13.6829 3.31707C13.6829 2.43733 13.3334 1.59362 12.7114 0.971548C12.0893 0.349476 11.2456 0 10.3659 0Z" fill="url(#paint0_linear)"/>
<defs>
<linearGradient id="paint0_linear" x1="7.96482" y1="-11.8467" x2="7.96482" y2="13.2683" gradientUnits="userSpaceOnUse">
<stop stop-color="#FCEABB"/>
<stop offset="1" stop-color="#E9C154"/>
</linearGradient>
</defs>
</svg>
