<svg width="17" height="17" viewBox="0 0 17 17" fill="none" xmlns="http://www.w3.org/2000/svg">
<path d="M15.2108 8.05174H17.0003C17.0003 3.46174 13.535 0 8.93872 0V1.78947C12.5731 1.78947 15.2108 4.42268 15.2108 8.05174Z" fill="white"/>
<path d="M15.2108 8.05174H17.0003C17.0003 3.46174 13.535 0 8.93872 0V1.78947C12.5731 1.78947 15.2108 4.42268 15.2108 8.05174Z" fill="url(#paint0_linear)"/>
<path d="M8.94762 5.36843C10.8293 5.36843 11.6318 6.17101 11.6318 8.05264H13.4213C13.4213 5.16711 11.8331 3.57896 8.94762 3.57896V5.36843ZM12.0094 10.2385C11.8375 10.0822 11.6116 9.99888 11.3793 10.0061C11.1471 10.0132 10.9268 10.1104 10.7648 10.277L8.62373 12.4789C8.10836 12.3805 7.07225 12.0575 6.00573 10.9936C4.9392 9.92622 4.6162 8.88743 4.52046 8.37564L6.72062 6.23364C6.88741 6.07181 6.98469 5.85143 6.99187 5.61914C6.99905 5.38685 6.91557 5.16089 6.75909 4.98906L3.45304 1.35375C3.2965 1.18138 3.07893 1.07683 2.84655 1.06229C2.61416 1.04776 2.38526 1.12439 2.20846 1.2759L0.266884 2.94101C0.112194 3.09626 0.0198645 3.30288 0.00741018 3.52169C-0.00601088 3.74538 -0.261906 9.04401 3.84673 13.1544C7.43104 16.7379 11.9208 17 13.1574 17C13.3381 17 13.449 16.9946 13.4786 16.9929C13.6973 16.9806 13.9039 16.8879 14.0584 16.7325L15.7226 14.79C15.8742 14.6133 15.951 14.3845 15.9366 14.1521C15.9222 13.9197 15.8179 13.7021 15.6456 13.5454L12.0094 10.2385Z" fill="white"/>
<path d="M8.94762 5.36843C10.8293 5.36843 11.6318 6.17101 11.6318 8.05264H13.4213C13.4213 5.16711 11.8331 3.57896 8.94762 3.57896V5.36843ZM12.0094 10.2385C11.8375 10.0822 11.6116 9.99888 11.3793 10.0061C11.1471 10.0132 10.9268 10.1104 10.7648 10.277L8.62373 12.4789C8.10836 12.3805 7.07225 12.0575 6.00573 10.9936C4.9392 9.92622 4.6162 8.88743 4.52046 8.37564L6.72062 6.23364C6.88741 6.07181 6.98469 5.85143 6.99187 5.61914C6.99905 5.38685 6.91557 5.16089 6.75909 4.98906L3.45304 1.35375C3.2965 1.18138 3.07893 1.07683 2.84655 1.06229C2.61416 1.04776 2.38526 1.12439 2.20846 1.2759L0.266884 2.94101C0.112194 3.09626 0.0198645 3.30288 0.00741018 3.52169C-0.00601088 3.74538 -0.261906 9.04401 3.84673 13.1544C7.43104 16.7379 11.9208 17 13.1574 17C13.3381 17 13.449 16.9946 13.4786 16.9929C13.6973 16.9806 13.9039 16.8879 14.0584 16.7325L15.7226 14.79C15.8742 14.6133 15.951 14.3845 15.9366 14.1521C15.9222 13.9197 15.8179 13.7021 15.6456 13.5454L12.0094 10.2385Z" fill="url(#paint1_linear)"/>
<defs>
<linearGradient id="paint0_linear" x1="12.7157" y1="-7.18905" x2="12.7157" y2="8.05174" gradientUnits="userSpaceOnUse">
<stop stop-color="#FCEABB"/>
<stop offset="1" stop-color="#E9C154"/>
</linearGradient>
<linearGradient id="paint1_linear" x1="7.4674" y1="-13.1711" x2="7.4674" y2="17" gradientUnits="userSpaceOnUse">
<stop stop-color="#FCEABB"/>
<stop offset="1" stop-color="#E9C154"/>
</linearGradient>
</defs>
</svg>
