<svg width="76" height="68" viewBox="0 0 76 68" fill="none" xmlns="http://www.w3.org/2000/svg">
<path d="M29.4272 25.5307C28.7879 24.8308 27.8776 24.421 26.9299 24.4063C25.0237 24.3818 23.4468 25.9016 23.4145 27.8062C23.4041 28.4202 23.8934 28.9263 24.5073 28.9367C24.5138 28.9368 24.52 28.9368 24.5265 28.9368C25.1318 28.9368 25.6275 28.4514 25.6377 27.8437C25.6491 27.1635 26.2083 26.6177 26.895 26.6295C27.2379 26.6349 27.5541 26.7772 27.7855 27.0304C28.1997 27.4838 28.9031 27.5155 29.3562 27.1014C29.8095 26.6874 29.8414 25.984 29.4272 25.5307Z" fill="white"/>
<path d="M29.4272 25.5307C28.7879 24.8308 27.8776 24.421 26.9299 24.4063C25.0237 24.3818 23.4468 25.9016 23.4145 27.8062C23.4041 28.4202 23.8934 28.9263 24.5073 28.9367C24.5138 28.9368 24.52 28.9368 24.5265 28.9368C25.1318 28.9368 25.6275 28.4514 25.6377 27.8437C25.6491 27.1635 26.2083 26.6177 26.895 26.6295C27.2379 26.6349 27.5541 26.7772 27.7855 27.0304C28.1997 27.4838 28.9031 27.5155 29.3562 27.1014C29.8095 26.6874 29.8414 25.984 29.4272 25.5307Z" fill="url(#paint0_linear)"/>
<path d="M35.3422 29.154C35.0014 28.3529 34.3381 27.7207 33.5217 27.4194C31.8802 26.8138 30.0502 27.6553 29.442 29.295C29.2284 29.8707 29.522 30.5105 30.0976 30.7241C30.2251 30.7714 30.3557 30.7938 30.4841 30.7938C30.9358 30.7938 31.3603 30.5166 31.5266 30.0683C31.7093 29.5759 32.2597 29.3239 32.7518 29.5055C32.9992 29.5968 33.1925 29.781 33.2958 30.0242C33.5361 30.5891 34.1892 30.8526 34.754 30.6122C35.3192 30.3719 35.5824 29.7191 35.3422 29.154Z" fill="white"/>
<path d="M35.3422 29.154C35.0014 28.3529 34.3381 27.7207 33.5217 27.4194C31.8802 26.8138 30.0502 27.6553 29.442 29.295C29.2284 29.8707 29.522 30.5105 30.0976 30.7241C30.2251 30.7714 30.3557 30.7938 30.4841 30.7938C30.9358 30.7938 31.3603 30.5166 31.5266 30.0683C31.7093 29.5759 32.2597 29.3239 32.7518 29.5055C32.9992 29.5968 33.1925 29.781 33.2958 30.0242C33.5361 30.5891 34.1892 30.8526 34.754 30.6122C35.3192 30.3719 35.5824 29.7191 35.3422 29.154Z" fill="url(#paint1_linear)"/>
<path d="M42.5076 19.3074C42.073 18.8735 41.369 18.8744 40.9354 19.3091L39.8874 20.3592C39.4536 20.7938 39.4544 21.4978 39.889 21.9313C40.1059 22.1479 40.3901 22.2561 40.6742 22.2561C40.9591 22.2561 41.244 22.1473 41.4612 21.9297L42.5092 20.8796C42.943 20.445 42.9422 19.741 42.5076 19.3074Z" fill="white"/>
<path d="M42.5076 19.3074C42.073 18.8735 41.369 18.8744 40.9354 19.3091L39.8874 20.3592C39.4536 20.7938 39.4544 21.4978 39.889 21.9313C40.1059 22.1479 40.3901 22.2561 40.6742 22.2561C40.9591 22.2561 41.244 22.1473 41.4612 21.9297L42.5092 20.8796C42.943 20.445 42.9422 19.741 42.5076 19.3074Z" fill="url(#paint2_linear)"/>
<path d="M35.5908 33.6602H34.109C33.4949 33.6602 32.9973 34.158 32.9973 34.772C32.9973 35.386 33.4949 35.8837 34.109 35.8837H35.5908C36.2049 35.8837 36.7026 35.386 36.7026 34.772C36.7026 34.158 36.2049 33.6602 35.5908 33.6602Z" fill="white"/>
<path d="M35.5908 33.6602H34.109C33.4949 33.6602 32.9973 34.158 32.9973 34.772C32.9973 35.386 33.4949 35.8837 34.109 35.8837H35.5908C36.2049 35.8837 36.7026 35.386 36.7026 34.772C36.7026 34.158 36.2049 33.6602 35.5908 33.6602Z" fill="url(#paint3_linear)"/>
<path d="M46.9523 33.6602H45.4704C44.8562 33.6602 44.3586 34.158 44.3586 34.772C44.3586 35.386 44.8564 35.8837 45.4704 35.8837H46.9523C47.5663 35.8837 48.064 35.386 48.064 34.772C48.064 34.158 47.5663 33.6602 46.9523 33.6602Z" fill="white"/>
<path d="M46.9523 33.6602H45.4704C44.8562 33.6602 44.3586 34.158 44.3586 34.772C44.3586 35.386 44.8564 35.8837 45.4704 35.8837H46.9523C47.5663 35.8837 48.064 35.386 48.064 34.772C48.064 34.158 47.5663 33.6602 46.9523 33.6602Z" fill="url(#paint4_linear)"/>
<path d="M75.9431 53.7066L75.6536 52.1439C75.469 51.1454 74.5971 50.4207 73.5803 50.4207C73.4527 50.4207 73.324 50.4324 73.1974 50.4557L67.3036 51.5384L69.9727 49.7541C70.6722 49.2865 71.0258 48.4502 70.8732 47.6205C70.8308 47.3933 70.7514 47.1752 70.6364 46.9711L69.8286 45.5408C69.5519 45.0494 69.0799 44.6843 68.5351 44.5396C68.2683 44.4684 67.9893 44.4526 67.7172 44.488C68.0144 42.8476 68.1676 41.1723 68.1676 39.4668C68.1676 38.7101 67.7126 38.0588 67.0625 37.7696C67.9119 35.7495 67.9699 33.4367 67.1303 31.3187C67.0622 31.1465 66.9612 30.9927 66.8303 30.8617C66.7004 30.7318 66.5485 30.6315 66.3761 30.5623C65.37 30.1616 64.3126 29.9585 63.2333 29.9585C63.0953 29.9585 62.9579 29.9621 62.8209 29.9686C62.6669 26.8655 60.0987 24.3884 56.9635 24.3884C56.5507 24.3884 56.1481 24.4323 55.7593 24.5141C56.0293 22.8983 55.8703 21.208 55.241 19.621C55.1734 19.4465 55.0719 19.29 54.9339 19.1497C54.8011 19.0169 54.6453 18.9145 54.4724 18.8458C53.3887 18.4142 52.2496 18.1954 51.0869 18.1954C49.3353 18.1954 47.6598 18.6878 46.2133 19.6033C45.6848 18.0725 44.8134 16.6353 43.5957 15.4149C43.2391 15.0577 42.7647 14.8608 42.26 14.8608C41.7552 14.8608 41.2809 15.0577 40.9238 15.4152L35.5409 20.8104C34.5448 19.9219 33.2339 19.3908 31.8111 19.3908C31.4883 19.3908 31.1623 19.4191 30.8423 19.4748C29.6826 19.6767 28.6155 20.2443 27.7973 21.0756C26.7483 20.5694 25.5465 20.3967 24.3916 20.5977C24.1375 20.6419 23.891 20.7041 23.6518 20.78V16.6226C23.6518 13.7596 21.3507 11.4262 18.5043 11.377V9.01912C19.3756 8.86837 20.0409 8.10895 20.0409 7.19523V1.85295C20.0409 0.831308 19.2097 0 18.188 0H9.14689C8.1251 0 7.29394 0.831308 7.29394 1.85295V7.19523C7.29394 8.10895 7.95922 8.86837 8.83055 9.01912V11.3767C5.98413 11.4257 3.68321 13.7591 3.68321 16.6223V49.0706C1.46352 51.0752 0.081665 53.8722 0.081665 56.9653C0.081665 63.0498 5.42187 68 11.9861 68L56.4846 67.987C58.0034 67.9864 59.4318 67.3189 60.4033 66.1558C61.3497 65.0236 61.7518 63.5529 61.5201 62.1026L70.4079 63.6998C70.531 63.7219 70.657 63.7332 70.7819 63.7332C71.2252 63.7332 71.6499 63.5971 72.0095 63.3401C72.4718 63.0098 72.7848 62.4985 72.8682 61.9377L73.1089 60.3224C73.1436 60.091 73.1398 59.858 73.0975 59.6296C72.9445 58.8036 72.3156 58.1482 71.4951 57.9603L68.3624 57.2416L74.2505 56.1599C74.8058 56.058 75.2876 55.7462 75.6072 55.2821C75.9262 54.8192 76.0453 54.2597 75.9431 53.7066ZM63.2333 32.1817C63.9026 32.1817 64.5606 32.2877 65.1933 32.4966C65.7587 34.2182 65.547 36.0752 64.6617 37.6091H61.6668L62.6224 36.6512C63.0562 36.2166 63.0553 35.5126 62.6205 35.0789C62.1857 34.6451 61.4818 34.6459 61.0483 35.0806L60.5427 35.5875C60.3056 34.807 59.8918 34.1082 59.3477 33.535C60.4512 32.6588 61.8058 32.1817 63.2333 32.1817ZM56.9635 26.6116C58.9714 26.6116 60.6048 28.2499 60.6048 30.2637C60.6048 30.3011 60.603 30.338 60.602 30.375C59.43 30.7562 58.3498 31.3928 57.4285 32.2575C57.2819 32.2019 57.1333 32.1503 56.9806 32.1081C56.6553 30.3512 55.4714 28.9429 53.9073 28.2852C54.5565 27.2796 55.6828 26.6116 56.9635 26.6116ZM51.0867 20.4186C51.8418 20.4186 52.5839 20.5408 53.299 20.7824C53.8737 22.4913 53.7563 24.3269 53.024 25.9168C52.422 26.4652 51.9336 27.1367 51.5997 27.8915C51.4013 27.9031 51.2028 27.925 51.0067 27.9591C50.1355 28.1107 49.3231 28.4887 48.6433 29.0369C48.4115 28.613 48.1276 28.2218 47.8024 27.8696L50.3519 25.3143C50.7856 24.8796 50.7847 24.1757 50.35 23.7421C49.9153 23.3083 49.2114 23.3091 48.7776 23.7438L45.9911 26.5368C45.4608 26.2861 44.8878 26.1118 44.2855 26.0302C44.5456 24.7035 45.1894 23.4535 46.1853 22.4552C47.4955 21.1419 49.2363 20.4186 51.0867 20.4186ZM42.5676 37.6091H41.6039C41.4416 37.1961 41.0403 36.9034 40.5697 36.9034C40.099 36.9034 39.6977 37.1963 39.5354 37.6091H38.4017C38.665 37.1804 38.6118 36.6124 38.2401 36.2415C37.8055 35.8077 37.1015 35.8085 36.6678 36.2431L35.6199 37.2932C35.5258 37.3875 35.4534 37.495 35.4002 37.6091H33.1374C32.2899 36.3086 31.7727 34.7736 31.7115 33.1223H49.3495C49.2883 34.7736 48.7711 36.3086 47.9236 37.6091H45.5689C45.5158 37.495 45.4432 37.3873 45.3492 37.2931L44.3015 36.243C43.8676 35.8085 43.1639 35.8073 42.7293 36.2412C42.3574 36.6121 42.3042 37.1803 42.5676 37.6091ZM39.9819 30.8988C40.401 29.3457 41.8177 28.1997 43.4966 28.1997C45.1756 28.1997 46.5923 29.3458 47.0114 30.8988H39.9819ZM42.2554 17.2283C43.3129 18.3712 44.0121 19.7281 44.355 21.1545C43.7874 21.7713 43.3159 22.4529 42.944 23.1782C42.7751 23.0747 42.5772 23.0141 42.3648 23.0141H40.8833C40.2693 23.0141 39.7716 23.5119 39.7716 24.1259C39.7716 24.7398 40.2693 25.2376 40.8833 25.2376H42.1829C42.1098 25.5446 42.0531 25.8553 42.0118 26.1684C41.5704 26.2843 41.1488 26.4495 40.7542 26.6597C40.0132 25.3808 38.7861 24.4278 37.3322 24.0455C37.3317 24.0424 37.3311 24.0393 37.3306 24.0362C37.2434 23.5331 37.0913 23.0557 36.8839 22.6121L42.2554 17.2283ZM22.1579 27.2603C22.0926 27.078 22.0433 26.8909 22.0108 26.7032C21.692 24.865 22.9312 23.1087 24.7727 22.788C24.9669 22.7542 25.1642 22.737 25.359 22.737C26.0914 22.737 26.7914 22.9707 27.383 23.4125C27.6278 23.5955 27.9373 23.6694 28.2385 23.6173C28.5397 23.5649 28.8061 23.391 28.9751 23.1362C29.497 22.3489 30.2956 21.8266 31.2235 21.665C31.4182 21.631 31.6159 21.614 31.8111 21.614C33.4583 21.614 34.8583 22.7925 35.1396 24.4164C35.1719 24.6024 35.1885 24.7963 35.1888 24.9927C35.1899 25.5682 35.63 26.0479 36.2034 26.0983C37.4463 26.2075 38.5044 26.9898 38.9949 28.0918C38.3383 28.8799 37.883 29.8423 37.7102 30.8988H31.3698C30.5815 30.8988 29.9051 31.3854 29.623 32.0741C28.2281 31.1241 26.5842 30.6122 24.8614 30.6122C23.7821 30.6122 22.7247 30.8154 21.7179 31.2163C21.5471 31.2845 21.3944 31.3851 21.2643 31.5153C21.1324 31.6472 21.0311 31.8018 20.9647 31.9714C20.7089 32.6167 20.5382 33.28 20.446 33.9475C20.0476 33.4939 19.7668 32.9299 19.6571 32.2969C19.3956 30.7885 20.1853 29.2865 21.5768 28.6444C22.0997 28.4031 22.3519 27.8024 22.1579 27.2603ZM25.4721 37.3051L25.7754 37.6091H23.1052C22.5058 36.2184 22.4148 34.6353 22.9014 33.1506C23.535 32.9414 24.1927 32.8356 24.8614 32.8356C26.5366 32.8356 28.1125 33.4904 29.2985 34.6791C29.4563 34.8372 29.6032 35.003 29.7412 35.1742C29.9296 36.0271 30.2191 36.842 30.592 37.609H28.9165L27.0462 35.7344C26.6124 35.2999 25.9084 35.2987 25.474 35.7326C25.0393 36.1665 25.0384 36.8704 25.4721 37.3051ZM20.7375 37.6091H16.7741C16.9508 36.5322 17.5986 35.6141 18.4978 35.0728C19.0301 35.7859 19.7249 36.3626 20.5253 36.7532C20.582 37.0417 20.6515 37.3276 20.7375 37.6091ZM9.51748 2.22354H17.8174V6.82464H9.51748V2.22354ZM16.2807 9.04818V11.3744H11.0542V9.04818H16.2807ZM5.9069 21.131H13.1264C13.7406 21.131 14.2382 20.6333 14.2382 20.0193C14.2382 19.4053 13.7406 18.9075 13.1264 18.9075H5.9069V16.6223C5.9069 14.9546 7.2594 13.598 8.92187 13.598H18.4131C20.0757 13.598 21.4282 14.9546 21.4282 16.6223V18.9075H19.3523C18.7382 18.9075 18.2406 19.4053 18.2406 20.0193C18.2406 20.6333 18.7382 21.131 19.3523 21.131H21.4282V22.1178C20.1544 23.3667 19.4929 25.1982 19.8196 27.0821C19.8202 27.0858 19.8209 27.0897 19.8215 27.0935C18.0379 28.3172 17.0876 30.4927 17.466 32.6767C17.4881 32.8042 17.5158 32.9296 17.5461 33.0537C16.9906 33.3599 16.4918 33.7554 16.0643 34.2182H5.9069V21.131ZM5.90675 36.4416H14.7733C14.6553 36.8163 14.572 37.2063 14.5314 37.6091H14.344C13.3208 37.6091 12.4881 38.4423 12.4881 39.4665C12.4881 41.2318 12.6522 42.9649 12.9702 44.6604C12.6507 44.6347 12.3231 44.621 11.9899 44.621C10.6454 44.621 9.36435 44.8343 8.38318 45.2218C6.88229 45.8144 6.46737 46.6559 6.3768 47.2382C6.21775 47.3174 6.06151 47.401 5.90675 47.4865V36.4416ZM19.9849 50.0993C20.3853 50.4197 20.63 50.692 20.7719 50.8884C20.7585 50.8885 20.7446 50.8887 20.7305 50.8887C20.1012 50.8887 18.9706 50.635 17.685 49.9234C17.2063 49.6582 16.7653 49.3586 16.4096 49.0572C15.9948 48.7058 15.3866 48.7061 14.9721 49.0574C14.6164 49.359 14.1755 49.6585 13.6973 49.9231C12.4113 50.635 11.2807 50.8887 10.6516 50.8887C10.6373 50.8887 10.6235 50.8885 10.61 50.8884C10.7517 50.692 10.9964 50.4195 11.397 50.099C11.7469 49.8189 11.8944 49.3558 11.771 48.9248C11.6473 48.4938 11.277 48.1791 10.8316 48.1269C9.74665 47.9997 9.06062 47.7235 8.73939 47.5225C9.14185 47.2719 10.1593 46.8445 11.9904 46.8445C13.5068 46.8445 14.6152 47.1634 15.1467 47.4619C15.4849 47.6516 15.8971 47.6516 16.2352 47.4621C16.7671 47.1635 17.8756 46.8447 19.3921 46.8447C21.2232 46.8447 22.2406 47.2722 22.6429 47.5227C22.3218 47.7238 21.6356 47.9999 20.5504 48.127C20.1049 48.1794 19.7345 48.4939 19.611 48.9251C19.4871 49.3562 19.6346 49.8193 19.9849 50.0993ZM17.7609 63.6312L17.7991 63.8372C17.9314 64.5513 18.2102 65.2066 18.5997 65.7765H11.9861C6.64808 65.7765 2.3052 61.8239 2.3052 56.9653C2.3052 53.645 4.33426 50.749 7.3221 49.2474C7.66527 49.5036 8.09308 49.7244 8.60064 49.9026C8.39933 50.2464 8.2591 50.6161 8.22605 51.0016C8.18217 51.5142 8.339 52.001 8.66809 52.3725C9.10286 52.8635 9.77022 53.1124 10.6516 53.1124C11.8263 53.1124 13.3675 52.6473 14.7742 51.8685C15.0981 51.6893 15.4044 51.5 15.6911 51.3023C15.9776 51.4999 16.2839 51.6892 16.6079 51.8687C18.0147 52.6473 19.5559 53.1122 20.7305 53.1124H20.7306C21.6118 53.1124 22.2791 52.8635 22.7137 52.3727C23.043 52.0012 23.2 51.5144 23.1559 51.0016C23.1229 50.6161 22.9826 50.2464 22.7813 49.9026C23.2889 49.7243 23.7169 49.5034 24.06 49.2474C26.4296 50.4383 28.1952 52.5064 28.8248 54.9675L20.9616 57.9546C18.6599 58.8292 17.3138 61.2164 17.7609 63.6312ZM58.6968 64.7302C58.1487 65.3866 57.3418 65.7631 56.4835 65.7634L55.3166 65.7639L54.5876 61.8275C54.4757 61.2237 53.8959 60.8245 53.2919 60.9367C52.6882 61.0485 52.2893 61.6285 52.4011 62.2323L53.0554 65.7646L49.23 65.7661L48.7372 63.1042C48.6252 62.5004 48.0453 62.1017 47.4414 62.2135C46.8378 62.3252 46.4389 62.9053 46.5507 63.509L46.9687 65.767L38.0708 65.7704L37.4011 62.1552C37.289 61.5514 36.7094 61.1527 36.1054 61.2646C35.5016 61.3764 35.1029 61.9566 35.2146 62.5603L35.8095 65.7713L22.8175 65.7763C22.8172 65.7763 22.8169 65.7763 22.8166 65.7763C21.4274 65.7763 20.2367 64.7905 19.985 63.4318L19.9468 63.2258C19.6955 61.8685 20.4542 60.5259 21.7508 60.0332L26.1204 58.3733L26.4459 60.1301C26.545 60.6654 27.0123 61.0396 27.5376 61.0396C27.6049 61.0396 27.6731 61.0334 27.7416 61.0208C28.3452 60.9088 28.744 60.3288 28.6321 59.725L28.2329 57.5707L34.7189 55.1067C35.2929 54.8887 35.5815 54.2465 35.3635 53.6726C35.1454 53.0984 34.5025 52.81 33.9294 53.028L30.9112 54.1746C30.0645 51.1768 27.8893 48.6727 25.0047 47.2381C24.9142 46.6558 24.4992 45.8143 22.9985 45.2216C22.0173 44.8341 20.7363 44.6208 19.3918 44.6208C18.4665 44.6208 17.5829 44.7229 16.8028 44.909V44.2375C16.8028 43.6235 16.3052 43.1257 15.6911 43.1257C15.4315 43.1257 15.1934 43.2152 15.0041 43.3644C14.8288 42.2047 14.7306 41.0268 14.7143 39.8323H50.9266C51.5408 39.8323 52.0384 39.3346 52.0384 38.7206C52.0384 38.1066 51.5408 37.6088 50.9266 37.6088H50.4717C51.1796 36.1508 51.5796 34.516 51.5796 32.7883C51.5796 31.8074 50.8291 30.9994 49.8727 30.9076C50.2891 30.515 50.8088 30.2502 51.3881 30.1493C51.5578 30.1198 51.73 30.1048 51.9002 30.1048C53.3356 30.1048 54.5553 31.1316 54.8003 32.5461C54.8286 32.7099 54.8432 32.8789 54.8433 33.0486C54.844 33.6244 55.2843 34.1044 55.8578 34.1548C57.1865 34.2714 58.2735 35.2707 58.5013 36.5846C58.5618 36.934 58.5542 37.2788 58.4936 37.6088H57.3008C56.6866 37.6088 56.189 38.1066 56.189 38.7206C56.189 39.3346 56.6866 39.8323 57.3008 39.8323H65.9417C65.9142 41.8718 65.6515 43.8639 65.1616 45.7968L59.1364 49.3535C58.7678 48.071 57.9113 46.9831 56.7312 46.3226C55.4076 45.5818 53.8347 45.4661 52.4161 46.0049L40.0071 50.7191C39.433 50.9371 39.1445 51.5793 39.3626 52.1533C39.5806 52.7274 40.2234 53.0156 40.7966 52.7978L42.4314 52.1768L42.9389 54.9173C43.0381 55.4526 43.5053 55.8269 44.0308 55.8269C44.098 55.8269 44.1662 55.8206 44.2346 55.808C44.8383 55.6963 45.2372 55.1162 45.1254 54.5125L44.5442 51.3743L53.2054 48.0839C54.008 47.7791 54.8971 47.8445 55.6453 48.2633C56.3921 48.6811 56.9094 49.4016 57.0648 50.2394L59.3139 62.3822C59.469 63.2195 59.2441 64.0753 58.6968 64.7302ZM62.6636 56.0279C62.145 56.1232 61.7647 56.5697 61.753 57.0969C61.7415 57.6242 62.102 58.087 62.6159 58.2049L70.8934 60.1035L70.6866 61.4908L61.0907 59.7664L59.5907 51.6677L67.9488 46.7338L68.6451 47.9666L61.5953 52.6792C61.157 52.9723 60.9847 53.5329 61.1831 54.0215C61.3812 54.5101 61.8956 54.7923 62.4142 54.697L73.4883 52.6628L73.7349 53.9939L62.6636 56.0279Z" fill="white"/>
<path d="M75.9431 53.7066L75.6536 52.1439C75.469 51.1454 74.5971 50.4207 73.5803 50.4207C73.4527 50.4207 73.324 50.4324 73.1974 50.4557L67.3036 51.5384L69.9727 49.7541C70.6722 49.2865 71.0258 48.4502 70.8732 47.6205C70.8308 47.3933 70.7514 47.1752 70.6364 46.9711L69.8286 45.5408C69.5519 45.0494 69.0799 44.6843 68.5351 44.5396C68.2683 44.4684 67.9893 44.4526 67.7172 44.488C68.0144 42.8476 68.1676 41.1723 68.1676 39.4668C68.1676 38.7101 67.7126 38.0588 67.0625 37.7696C67.9119 35.7495 67.9699 33.4367 67.1303 31.3187C67.0622 31.1465 66.9612 30.9927 66.8303 30.8617C66.7004 30.7318 66.5485 30.6315 66.3761 30.5623C65.37 30.1616 64.3126 29.9585 63.2333 29.9585C63.0953 29.9585 62.9579 29.9621 62.8209 29.9686C62.6669 26.8655 60.0987 24.3884 56.9635 24.3884C56.5507 24.3884 56.1481 24.4323 55.7593 24.5141C56.0293 22.8983 55.8703 21.208 55.241 19.621C55.1734 19.4465 55.0719 19.29 54.9339 19.1497C54.8011 19.0169 54.6453 18.9145 54.4724 18.8458C53.3887 18.4142 52.2496 18.1954 51.0869 18.1954C49.3353 18.1954 47.6598 18.6878 46.2133 19.6033C45.6848 18.0725 44.8134 16.6353 43.5957 15.4149C43.2391 15.0577 42.7647 14.8608 42.26 14.8608C41.7552 14.8608 41.2809 15.0577 40.9238 15.4152L35.5409 20.8104C34.5448 19.9219 33.2339 19.3908 31.8111 19.3908C31.4883 19.3908 31.1623 19.4191 30.8423 19.4748C29.6826 19.6767 28.6155 20.2443 27.7973 21.0756C26.7483 20.5694 25.5465 20.3967 24.3916 20.5977C24.1375 20.6419 23.891 20.7041 23.6518 20.78V16.6226C23.6518 13.7596 21.3507 11.4262 18.5043 11.377V9.01912C19.3756 8.86837 20.0409 8.10895 20.0409 7.19523V1.85295C20.0409 0.831308 19.2097 0 18.188 0H9.14689C8.1251 0 7.29394 0.831308 7.29394 1.85295V7.19523C7.29394 8.10895 7.95922 8.86837 8.83055 9.01912V11.3767C5.98413 11.4257 3.68321 13.7591 3.68321 16.6223V49.0706C1.46352 51.0752 0.081665 53.8722 0.081665 56.9653C0.081665 63.0498 5.42187 68 11.9861 68L56.4846 67.987C58.0034 67.9864 59.4318 67.3189 60.4033 66.1558C61.3497 65.0236 61.7518 63.5529 61.5201 62.1026L70.4079 63.6998C70.531 63.7219 70.657 63.7332 70.7819 63.7332C71.2252 63.7332 71.6499 63.5971 72.0095 63.3401C72.4718 63.0098 72.7848 62.4985 72.8682 61.9377L73.1089 60.3224C73.1436 60.091 73.1398 59.858 73.0975 59.6296C72.9445 58.8036 72.3156 58.1482 71.4951 57.9603L68.3624 57.2416L74.2505 56.1599C74.8058 56.058 75.2876 55.7462 75.6072 55.2821C75.9262 54.8192 76.0453 54.2597 75.9431 53.7066ZM63.2333 32.1817C63.9026 32.1817 64.5606 32.2877 65.1933 32.4966C65.7587 34.2182 65.547 36.0752 64.6617 37.6091H61.6668L62.6224 36.6512C63.0562 36.2166 63.0553 35.5126 62.6205 35.0789C62.1857 34.6451 61.4818 34.6459 61.0483 35.0806L60.5427 35.5875C60.3056 34.807 59.8918 34.1082 59.3477 33.535C60.4512 32.6588 61.8058 32.1817 63.2333 32.1817ZM56.9635 26.6116C58.9714 26.6116 60.6048 28.2499 60.6048 30.2637C60.6048 30.3011 60.603 30.338 60.602 30.375C59.43 30.7562 58.3498 31.3928 57.4285 32.2575C57.2819 32.2019 57.1333 32.1503 56.9806 32.1081C56.6553 30.3512 55.4714 28.9429 53.9073 28.2852C54.5565 27.2796 55.6828 26.6116 56.9635 26.6116ZM51.0867 20.4186C51.8418 20.4186 52.5839 20.5408 53.299 20.7824C53.8737 22.4913 53.7563 24.3269 53.024 25.9168C52.422 26.4652 51.9336 27.1367 51.5997 27.8915C51.4013 27.9031 51.2028 27.925 51.0067 27.9591C50.1355 28.1107 49.3231 28.4887 48.6433 29.0369C48.4115 28.613 48.1276 28.2218 47.8024 27.8696L50.3519 25.3143C50.7856 24.8796 50.7847 24.1757 50.35 23.7421C49.9153 23.3083 49.2114 23.3091 48.7776 23.7438L45.9911 26.5368C45.4608 26.2861 44.8878 26.1118 44.2855 26.0302C44.5456 24.7035 45.1894 23.4535 46.1853 22.4552C47.4955 21.1419 49.2363 20.4186 51.0867 20.4186ZM42.5676 37.6091H41.6039C41.4416 37.1961 41.0403 36.9034 40.5697 36.9034C40.099 36.9034 39.6977 37.1963 39.5354 37.6091H38.4017C38.665 37.1804 38.6118 36.6124 38.2401 36.2415C37.8055 35.8077 37.1015 35.8085 36.6678 36.2431L35.6199 37.2932C35.5258 37.3875 35.4534 37.495 35.4002 37.6091H33.1374C32.2899 36.3086 31.7727 34.7736 31.7115 33.1223H49.3495C49.2883 34.7736 48.7711 36.3086 47.9236 37.6091H45.5689C45.5158 37.495 45.4432 37.3873 45.3492 37.2931L44.3015 36.243C43.8676 35.8085 43.1639 35.8073 42.7293 36.2412C42.3574 36.6121 42.3042 37.1803 42.5676 37.6091ZM39.9819 30.8988C40.401 29.3457 41.8177 28.1997 43.4966 28.1997C45.1756 28.1997 46.5923 29.3458 47.0114 30.8988H39.9819ZM42.2554 17.2283C43.3129 18.3712 44.0121 19.7281 44.355 21.1545C43.7874 21.7713 43.3159 22.4529 42.944 23.1782C42.7751 23.0747 42.5772 23.0141 42.3648 23.0141H40.8833C40.2693 23.0141 39.7716 23.5119 39.7716 24.1259C39.7716 24.7398 40.2693 25.2376 40.8833 25.2376H42.1829C42.1098 25.5446 42.0531 25.8553 42.0118 26.1684C41.5704 26.2843 41.1488 26.4495 40.7542 26.6597C40.0132 25.3808 38.7861 24.4278 37.3322 24.0455C37.3317 24.0424 37.3311 24.0393 37.3306 24.0362C37.2434 23.5331 37.0913 23.0557 36.8839 22.6121L42.2554 17.2283ZM22.1579 27.2603C22.0926 27.078 22.0433 26.8909 22.0108 26.7032C21.692 24.865 22.9312 23.1087 24.7727 22.788C24.9669 22.7542 25.1642 22.737 25.359 22.737C26.0914 22.737 26.7914 22.9707 27.383 23.4125C27.6278 23.5955 27.9373 23.6694 28.2385 23.6173C28.5397 23.5649 28.8061 23.391 28.9751 23.1362C29.497 22.3489 30.2956 21.8266 31.2235 21.665C31.4182 21.631 31.6159 21.614 31.8111 21.614C33.4583 21.614 34.8583 22.7925 35.1396 24.4164C35.1719 24.6024 35.1885 24.7963 35.1888 24.9927C35.1899 25.5682 35.63 26.0479 36.2034 26.0983C37.4463 26.2075 38.5044 26.9898 38.9949 28.0918C38.3383 28.8799 37.883 29.8423 37.7102 30.8988H31.3698C30.5815 30.8988 29.9051 31.3854 29.623 32.0741C28.2281 31.1241 26.5842 30.6122 24.8614 30.6122C23.7821 30.6122 22.7247 30.8154 21.7179 31.2163C21.5471 31.2845 21.3944 31.3851 21.2643 31.5153C21.1324 31.6472 21.0311 31.8018 20.9647 31.9714C20.7089 32.6167 20.5382 33.28 20.446 33.9475C20.0476 33.4939 19.7668 32.9299 19.6571 32.2969C19.3956 30.7885 20.1853 29.2865 21.5768 28.6444C22.0997 28.4031 22.3519 27.8024 22.1579 27.2603ZM25.4721 37.3051L25.7754 37.6091H23.1052C22.5058 36.2184 22.4148 34.6353 22.9014 33.1506C23.535 32.9414 24.1927 32.8356 24.8614 32.8356C26.5366 32.8356 28.1125 33.4904 29.2985 34.6791C29.4563 34.8372 29.6032 35.003 29.7412 35.1742C29.9296 36.0271 30.2191 36.842 30.592 37.609H28.9165L27.0462 35.7344C26.6124 35.2999 25.9084 35.2987 25.474 35.7326C25.0393 36.1665 25.0384 36.8704 25.4721 37.3051ZM20.7375 37.6091H16.7741C16.9508 36.5322 17.5986 35.6141 18.4978 35.0728C19.0301 35.7859 19.7249 36.3626 20.5253 36.7532C20.582 37.0417 20.6515 37.3276 20.7375 37.6091ZM9.51748 2.22354H17.8174V6.82464H9.51748V2.22354ZM16.2807 9.04818V11.3744H11.0542V9.04818H16.2807ZM5.9069 21.131H13.1264C13.7406 21.131 14.2382 20.6333 14.2382 20.0193C14.2382 19.4053 13.7406 18.9075 13.1264 18.9075H5.9069V16.6223C5.9069 14.9546 7.2594 13.598 8.92187 13.598H18.4131C20.0757 13.598 21.4282 14.9546 21.4282 16.6223V18.9075H19.3523C18.7382 18.9075 18.2406 19.4053 18.2406 20.0193C18.2406 20.6333 18.7382 21.131 19.3523 21.131H21.4282V22.1178C20.1544 23.3667 19.4929 25.1982 19.8196 27.0821C19.8202 27.0858 19.8209 27.0897 19.8215 27.0935C18.0379 28.3172 17.0876 30.4927 17.466 32.6767C17.4881 32.8042 17.5158 32.9296 17.5461 33.0537C16.9906 33.3599 16.4918 33.7554 16.0643 34.2182H5.9069V21.131ZM5.90675 36.4416H14.7733C14.6553 36.8163 14.572 37.2063 14.5314 37.6091H14.344C13.3208 37.6091 12.4881 38.4423 12.4881 39.4665C12.4881 41.2318 12.6522 42.9649 12.9702 44.6604C12.6507 44.6347 12.3231 44.621 11.9899 44.621C10.6454 44.621 9.36435 44.8343 8.38318 45.2218C6.88229 45.8144 6.46737 46.6559 6.3768 47.2382C6.21775 47.3174 6.06151 47.401 5.90675 47.4865V36.4416ZM19.9849 50.0993C20.3853 50.4197 20.63 50.692 20.7719 50.8884C20.7585 50.8885 20.7446 50.8887 20.7305 50.8887C20.1012 50.8887 18.9706 50.635 17.685 49.9234C17.2063 49.6582 16.7653 49.3586 16.4096 49.0572C15.9948 48.7058 15.3866 48.7061 14.9721 49.0574C14.6164 49.359 14.1755 49.6585 13.6973 49.9231C12.4113 50.635 11.2807 50.8887 10.6516 50.8887C10.6373 50.8887 10.6235 50.8885 10.61 50.8884C10.7517 50.692 10.9964 50.4195 11.397 50.099C11.7469 49.8189 11.8944 49.3558 11.771 48.9248C11.6473 48.4938 11.277 48.1791 10.8316 48.1269C9.74665 47.9997 9.06062 47.7235 8.73939 47.5225C9.14185 47.2719 10.1593 46.8445 11.9904 46.8445C13.5068 46.8445 14.6152 47.1634 15.1467 47.4619C15.4849 47.6516 15.8971 47.6516 16.2352 47.4621C16.7671 47.1635 17.8756 46.8447 19.3921 46.8447C21.2232 46.8447 22.2406 47.2722 22.6429 47.5227C22.3218 47.7238 21.6356 47.9999 20.5504 48.127C20.1049 48.1794 19.7345 48.4939 19.611 48.9251C19.4871 49.3562 19.6346 49.8193 19.9849 50.0993ZM17.7609 63.6312L17.7991 63.8372C17.9314 64.5513 18.2102 65.2066 18.5997 65.7765H11.9861C6.64808 65.7765 2.3052 61.8239 2.3052 56.9653C2.3052 53.645 4.33426 50.749 7.3221 49.2474C7.66527 49.5036 8.09308 49.7244 8.60064 49.9026C8.39933 50.2464 8.2591 50.6161 8.22605 51.0016C8.18217 51.5142 8.339 52.001 8.66809 52.3725C9.10286 52.8635 9.77022 53.1124 10.6516 53.1124C11.8263 53.1124 13.3675 52.6473 14.7742 51.8685C15.0981 51.6893 15.4044 51.5 15.6911 51.3023C15.9776 51.4999 16.2839 51.6892 16.6079 51.8687C18.0147 52.6473 19.5559 53.1122 20.7305 53.1124H20.7306C21.6118 53.1124 22.2791 52.8635 22.7137 52.3727C23.043 52.0012 23.2 51.5144 23.1559 51.0016C23.1229 50.6161 22.9826 50.2464 22.7813 49.9026C23.2889 49.7243 23.7169 49.5034 24.06 49.2474C26.4296 50.4383 28.1952 52.5064 28.8248 54.9675L20.9616 57.9546C18.6599 58.8292 17.3138 61.2164 17.7609 63.6312ZM58.6968 64.7302C58.1487 65.3866 57.3418 65.7631 56.4835 65.7634L55.3166 65.7639L54.5876 61.8275C54.4757 61.2237 53.8959 60.8245 53.2919 60.9367C52.6882 61.0485 52.2893 61.6285 52.4011 62.2323L53.0554 65.7646L49.23 65.7661L48.7372 63.1042C48.6252 62.5004 48.0453 62.1017 47.4414 62.2135C46.8378 62.3252 46.4389 62.9053 46.5507 63.509L46.9687 65.767L38.0708 65.7704L37.4011 62.1552C37.289 61.5514 36.7094 61.1527 36.1054 61.2646C35.5016 61.3764 35.1029 61.9566 35.2146 62.5603L35.8095 65.7713L22.8175 65.7763C22.8172 65.7763 22.8169 65.7763 22.8166 65.7763C21.4274 65.7763 20.2367 64.7905 19.985 63.4318L19.9468 63.2258C19.6955 61.8685 20.4542 60.5259 21.7508 60.0332L26.1204 58.3733L26.4459 60.1301C26.545 60.6654 27.0123 61.0396 27.5376 61.0396C27.6049 61.0396 27.6731 61.0334 27.7416 61.0208C28.3452 60.9088 28.744 60.3288 28.6321 59.725L28.2329 57.5707L34.7189 55.1067C35.2929 54.8887 35.5815 54.2465 35.3635 53.6726C35.1454 53.0984 34.5025 52.81 33.9294 53.028L30.9112 54.1746C30.0645 51.1768 27.8893 48.6727 25.0047 47.2381C24.9142 46.6558 24.4992 45.8143 22.9985 45.2216C22.0173 44.8341 20.7363 44.6208 19.3918 44.6208C18.4665 44.6208 17.5829 44.7229 16.8028 44.909V44.2375C16.8028 43.6235 16.3052 43.1257 15.6911 43.1257C15.4315 43.1257 15.1934 43.2152 15.0041 43.3644C14.8288 42.2047 14.7306 41.0268 14.7143 39.8323H50.9266C51.5408 39.8323 52.0384 39.3346 52.0384 38.7206C52.0384 38.1066 51.5408 37.6088 50.9266 37.6088H50.4717C51.1796 36.1508 51.5796 34.516 51.5796 32.7883C51.5796 31.8074 50.8291 30.9994 49.8727 30.9076C50.2891 30.515 50.8088 30.2502 51.3881 30.1493C51.5578 30.1198 51.73 30.1048 51.9002 30.1048C53.3356 30.1048 54.5553 31.1316 54.8003 32.5461C54.8286 32.7099 54.8432 32.8789 54.8433 33.0486C54.844 33.6244 55.2843 34.1044 55.8578 34.1548C57.1865 34.2714 58.2735 35.2707 58.5013 36.5846C58.5618 36.934 58.5542 37.2788 58.4936 37.6088H57.3008C56.6866 37.6088 56.189 38.1066 56.189 38.7206C56.189 39.3346 56.6866 39.8323 57.3008 39.8323H65.9417C65.9142 41.8718 65.6515 43.8639 65.1616 45.7968L59.1364 49.3535C58.7678 48.071 57.9113 46.9831 56.7312 46.3226C55.4076 45.5818 53.8347 45.4661 52.4161 46.0049L40.0071 50.7191C39.433 50.9371 39.1445 51.5793 39.3626 52.1533C39.5806 52.7274 40.2234 53.0156 40.7966 52.7978L42.4314 52.1768L42.9389 54.9173C43.0381 55.4526 43.5053 55.8269 44.0308 55.8269C44.098 55.8269 44.1662 55.8206 44.2346 55.808C44.8383 55.6963 45.2372 55.1162 45.1254 54.5125L44.5442 51.3743L53.2054 48.0839C54.008 47.7791 54.8971 47.8445 55.6453 48.2633C56.3921 48.6811 56.9094 49.4016 57.0648 50.2394L59.3139 62.3822C59.469 63.2195 59.2441 64.0753 58.6968 64.7302ZM62.6636 56.0279C62.145 56.1232 61.7647 56.5697 61.753 57.0969C61.7415 57.6242 62.102 58.087 62.6159 58.2049L70.8934 60.1035L70.6866 61.4908L61.0907 59.7664L59.5907 51.6677L67.9488 46.7338L68.6451 47.9666L61.5953 52.6792C61.157 52.9723 60.9847 53.5329 61.1831 54.0215C61.3812 54.5101 61.8956 54.7923 62.4142 54.697L73.4883 52.6628L73.7349 53.9939L62.6636 56.0279Z" fill="url(#paint5_linear)"/>
<defs>
<linearGradient id="paint0_linear" x1="26.3678" y1="20.3606" x2="26.3678" y2="28.9368" gradientUnits="userSpaceOnUse">
<stop stop-color="#FCEABB"/>
<stop offset="1" stop-color="#E9C154"/>
</linearGradient>
<linearGradient id="paint1_linear" x1="32.2109" y1="24.0346" x2="32.2109" y2="30.7938" gradientUnits="userSpaceOnUse">
<stop stop-color="#FCEABB"/>
<stop offset="1" stop-color="#E9C154"/>
</linearGradient>
<linearGradient id="paint2_linear" x1="41.0953" y1="16.0597" x2="41.0953" y2="22.2561" gradientUnits="userSpaceOnUse">
<stop stop-color="#FCEABB"/>
<stop offset="1" stop-color="#E9C154"/>
</linearGradient>
<linearGradient id="paint3_linear" x1="34.7333" y1="31.6749" x2="34.7333" y2="35.8837" gradientUnits="userSpaceOnUse">
<stop stop-color="#FCEABB"/>
<stop offset="1" stop-color="#E9C154"/>
</linearGradient>
<linearGradient id="paint4_linear" x1="46.0947" y1="31.6749" x2="46.0947" y2="35.8837" gradientUnits="userSpaceOnUse">
<stop stop-color="#FCEABB"/>
<stop offset="1" stop-color="#E9C154"/>
</linearGradient>
<linearGradient id="paint5_linear" x1="35.6409" y1="-60.7143" x2="35.6409" y2="68" gradientUnits="userSpaceOnUse">
<stop stop-color="#FCEABB"/>
<stop offset="1" stop-color="#E9C154"/>
</linearGradient>
</defs>
</svg>
