<svg width="60" height="68" viewBox="0 0 60 68" fill="none" xmlns="http://www.w3.org/2000/svg">
<path d="M58.1516 55.4503H49.5313V45.8883C49.5313 45.3384 49.0851 44.8922 48.5352 44.8922H33.6799V29.5736C33.6799 29.0237 33.2343 28.5775 32.6838 28.5775C32.1339 28.5775 31.6877 29.0237 31.6877 29.5736V44.8922H23.1223V20.4754H31.6877V25.5892C31.6877 26.1392 32.1339 26.5853 32.6838 26.5853C33.2343 26.5853 33.6799 26.1392 33.6799 25.5892V19.4793C33.6799 18.9289 33.2343 18.4832 32.6838 18.4832H0.996094C0.445648 18.4832 0 18.9289 0 19.4793C0.000518799 20.4204 0.01297 48.7064 0.0145264 52.903C0.0145264 53.4534 0.460693 53.8991 1.01062 53.8991C1.56107 53.8991 2.00671 53.4534 2.00671 52.903V41.5911H10.5721V66.0078H2.00671V56.8873C2.00671 56.3369 1.56107 55.8912 1.01062 55.8912C0.460693 55.8912 0.0145264 56.3369 0.0145264 56.8873V67.0039C0.0145264 67.5544 0.460693 68 1.01062 68H58.1516C58.7021 68 59.1477 67.5544 59.1477 67.0039V56.4464C59.1477 55.8959 58.7021 55.4503 58.1516 55.4503ZM47.5391 46.8844V55.4503H23.1223V46.8844H47.5391ZM12.5643 55.4503V31.0335H21.1302V55.4503H12.5643ZM1.99219 20.4754H21.1302V29.0413H1.99219V20.4754ZM1.99219 39.5989V31.0335H10.5726V39.5989H1.99219ZM12.5643 57.4424H36.9815V66.0078H12.5643V57.4424ZM57.1556 66.0078H38.9737V57.4424H57.1556V66.0078Z" fill="white"/>
<path d="M58.1516 55.4503H49.5313V45.8883C49.5313 45.3384 49.0851 44.8922 48.5352 44.8922H33.6799V29.5736C33.6799 29.0237 33.2343 28.5775 32.6838 28.5775C32.1339 28.5775 31.6877 29.0237 31.6877 29.5736V44.8922H23.1223V20.4754H31.6877V25.5892C31.6877 26.1392 32.1339 26.5853 32.6838 26.5853C33.2343 26.5853 33.6799 26.1392 33.6799 25.5892V19.4793C33.6799 18.9289 33.2343 18.4832 32.6838 18.4832H0.996094C0.445648 18.4832 0 18.9289 0 19.4793C0.000518799 20.4204 0.01297 48.7064 0.0145264 52.903C0.0145264 53.4534 0.460693 53.8991 1.01062 53.8991C1.56107 53.8991 2.00671 53.4534 2.00671 52.903V41.5911H10.5721V66.0078H2.00671V56.8873C2.00671 56.3369 1.56107 55.8912 1.01062 55.8912C0.460693 55.8912 0.0145264 56.3369 0.0145264 56.8873V67.0039C0.0145264 67.5544 0.460693 68 1.01062 68H58.1516C58.7021 68 59.1477 67.5544 59.1477 67.0039V56.4464C59.1477 55.8959 58.7021 55.4503 58.1516 55.4503ZM47.5391 46.8844V55.4503H23.1223V46.8844H47.5391ZM12.5643 55.4503V31.0335H21.1302V55.4503H12.5643ZM1.99219 20.4754H21.1302V29.0413H1.99219V20.4754ZM1.99219 39.5989V31.0335H10.5726V39.5989H1.99219ZM12.5643 57.4424H36.9815V66.0078H12.5643V57.4424ZM57.1556 66.0078H38.9737V57.4424H57.1556V66.0078Z" fill="url(#paint0_linear)"/>
<path d="M58.1516 0H31.7427C31.1928 0 30.7466 0.445648 30.7466 0.996094V11.5537C30.7466 12.1041 31.1928 12.5497 31.7427 12.5497H46.598V37.9626C46.598 38.513 47.0436 38.9587 47.5941 38.9587H58.1516C58.7021 38.9587 59.1477 38.513 59.1477 37.9626V0.996094C59.1477 0.445648 58.7021 0 58.1516 0ZM32.7388 1.99219H57.1556V10.5576H32.7388V1.99219ZM57.1556 36.9665H48.5902V12.5497H57.1556V36.9665Z" fill="white"/>
<path d="M58.1516 0H31.7427C31.1928 0 30.7466 0.445648 30.7466 0.996094V11.5537C30.7466 12.1041 31.1928 12.5497 31.7427 12.5497H46.598V37.9626C46.598 38.513 47.0436 38.9587 47.5941 38.9587H58.1516C58.7021 38.9587 59.1477 38.513 59.1477 37.9626V0.996094C59.1477 0.445648 58.7021 0 58.1516 0ZM32.7388 1.99219H57.1556V10.5576H32.7388V1.99219ZM57.1556 36.9665H48.5902V12.5497H57.1556V36.9665Z" fill="url(#paint1_linear)"/>
<defs>
<linearGradient id="paint0_linear" x1="27.7118" y1="-25.7281" x2="27.7118" y2="68" gradientUnits="userSpaceOnUse">
<stop stop-color="#FCEABB"/>
<stop offset="1" stop-color="#E9C154"/>
</linearGradient>
<linearGradient id="paint1_linear" x1="44.0531" y1="-34.7845" x2="44.0531" y2="38.9587" gradientUnits="userSpaceOnUse">
<stop stop-color="#FCEABB"/>
<stop offset="1" stop-color="#E9C154"/>
</linearGradient>
</defs>
</svg>
