<svg width="68" height="68" viewBox="0 0 68 68" fill="none" xmlns="http://www.w3.org/2000/svg">
<path d="M66.9385 55.5278C66.3888 55.5278 65.9434 55.9734 65.9434 56.523V66.9386C65.9434 68.222 67.9337 68.222 67.9337 66.9386V56.523C67.9337 55.9734 67.4883 55.5278 66.9385 55.5278Z" fill="white"/>
<path d="M66.9385 55.5278C66.3888 55.5278 65.9434 55.9734 65.9434 56.523V66.9386C65.9434 68.222 67.9337 68.222 67.9337 66.9386V56.523C67.9337 55.9734 67.4883 55.5278 66.9385 55.5278Z" fill="url(#paint0_linear)"/>
<path d="M66.9385 33.0851H59.1243V29.497H61.5141C62.9688 29.497 64.1522 28.3136 64.1522 26.8589V2.63827C64.1522 1.18353 62.9688 0 61.5141 0H24.3883C22.9336 0 21.7502 1.18353 21.7502 2.63827V6.21129C21.7502 7.49473 23.7404 7.49473 23.7404 6.21129V2.63827C23.7404 2.28095 24.031 1.99024 24.3883 1.99024H61.5142C61.8714 1.99024 62.1621 2.28095 62.1621 2.63827V21.9342H59.1244V11.3319C59.1244 11.0035 58.9624 10.6964 58.6915 10.5109C58.4207 10.3254 58.0757 10.2854 57.7695 10.4041C57.5092 10.505 52.019 12.7471 50.8506 21.9341H23.7404V11.3858C23.7404 10.1023 21.7502 10.1023 21.7502 11.3858V26.8589C21.7502 28.3136 22.9336 29.497 24.3883 29.497H37.7556V33.0851H15.1611C17.3653 30.8834 17.5805 27.3969 17.5805 24.4675C17.5805 23.918 17.1351 23.4724 16.5854 23.4724H11.2117V21.5937C14.4041 22.2723 17.8841 19.6545 17.8415 16.3335C17.8358 15.8888 17.7806 15.4369 17.3697 15.1655C15.4795 13.9179 12.8762 14.4378 11.2117 15.8001V14.0051C14.0555 12.0423 14.2667 7.42016 11.534 5.26274C11.2587 5.0454 10.954 4.83855 10.6272 4.70533C9.22465 4.13268 7.68287 6.63096 7.34864 7.5953C6.55905 9.874 7.27328 12.4948 9.22133 13.9407V15.7891C7.94399 14.7498 6.27577 14.2373 4.64603 14.5637C3.97253 14.6986 2.79231 15.0034 2.64543 15.8198C2.01413 19.3327 5.99369 22.2739 9.22146 21.5967V23.4724H3.44976C2.90005 23.4724 2.45463 23.918 2.45463 24.4675C2.45463 27.3928 2.61332 30.8837 4.81719 33.0851H0.995122C0.445417 33.0851 0 33.5307 0 34.0803V66.9385C0 68.222 1.99024 68.222 1.99024 66.9385V62.2946H19.9688V66.9385C19.9688 68.222 21.959 68.222 21.959 66.9385V41.5961H57.1485C57.1537 41.9428 57.1869 43.8103 57.191 44.37H40.3497C36.4155 44.37 33.5006 45.394 31.6857 47.4136C29.5068 49.8382 29.7937 52.7774 29.8071 52.9012C29.8612 53.4069 30.2879 53.7903 30.7965 53.7903H43.6527V55.5815H39.7385C38.4551 55.5815 38.4551 57.5718 39.7385 57.5718H43.6527V65.9434H30.9151C29.6317 65.9434 29.6317 67.9337 30.9151 67.9337H44.2929C44.4033 67.9758 44.5225 68 44.6478 68C44.7731 68 44.8923 67.9758 45.0027 67.9337H58.3805C59.6639 67.9337 59.6639 65.9434 58.3805 65.9434H45.6429V53.7905H52.2911C54.5757 53.7905 56.227 53.2397 57.34 52.1067C59.2903 50.1211 59.2309 46.7965 59.1556 42.5871C59.1498 42.2615 59.1441 41.9303 59.139 41.596H65.9434V50.9502C65.9434 52.2337 67.9337 52.2337 67.9337 50.9502V34.0803C67.9337 33.5307 67.4882 33.0851 66.9385 33.0851ZM12.8737 17.0492C14.1543 16.2367 15.2685 16.4281 15.8486 16.633C15.6734 18.6958 13.1656 20.1969 11.2487 19.5471C11.3291 18.9088 11.6531 17.8236 12.8737 17.0492ZM6.25918 19.1192C5.41373 18.5828 4.69459 17.659 4.60158 16.6325C6.59447 15.9319 8.93805 17.484 9.19771 19.5471C8.23112 19.8748 7.1065 19.6567 6.25918 19.1192ZM10.2679 6.78925C11.9344 8.0569 11.8597 10.9501 10.2621 12.2364C9.76918 11.8311 9.02562 10.9784 9.02562 9.52425C9.02549 8.00768 9.78417 7.16952 10.2679 6.78925ZM4.45894 25.4626H15.5752C15.4067 30.8383 13.8023 32.9592 10.0174 32.9592C6.18064 32.9594 4.62028 30.9066 4.45894 25.4626ZM55.9201 50.7121C55.2009 51.4444 54.0139 51.8002 52.2911 51.8002H31.8125C31.9045 51.0057 32.2113 49.8065 33.1662 48.7439C34.5875 47.1621 37.0043 46.3602 40.3498 46.3602H57.1655C57.0832 48.3105 56.7884 49.8281 55.9201 50.7121ZM62.1619 23.9245V26.859C62.1619 27.2163 61.8714 27.5069 61.5141 27.5069H59.1243V23.9245H62.1619ZM55.5777 14.7753C56.1196 14.0595 56.6644 13.5268 57.1341 13.1404V38.0666C56.666 37.6655 56.1251 37.1184 55.5871 36.3919C53.6479 33.7728 52.6228 30.0166 52.6228 25.5289C52.6228 21.0478 53.6448 17.3292 55.5777 14.7753ZM50.9002 29.4971C51.0902 30.8366 51.3716 32.0283 51.7146 33.0853H48.1468V29.4971H50.9002ZM23.7404 26.8589V23.9243H50.6741C50.6119 25.1174 50.6191 26.3146 50.6966 27.5068H24.3883C24.031 27.5069 23.7404 27.2162 23.7404 26.8589ZM39.7458 29.4971H46.1565V33.0853H39.7458V29.4971ZM52.4961 35.0754C53.533 37.2912 54.8202 38.7226 55.8616 39.6059H1.99024V35.0754H52.4961ZM1.99024 60.3044V51.9454H19.9688V60.3044H1.99024ZM19.9688 49.9551H1.99024V41.5961H19.9688V49.9551ZM59.1243 39.6059V35.0754H65.9434V39.6059H59.1243Z" fill="white"/>
<path d="M66.9385 33.0851H59.1243V29.497H61.5141C62.9688 29.497 64.1522 28.3136 64.1522 26.8589V2.63827C64.1522 1.18353 62.9688 0 61.5141 0H24.3883C22.9336 0 21.7502 1.18353 21.7502 2.63827V6.21129C21.7502 7.49473 23.7404 7.49473 23.7404 6.21129V2.63827C23.7404 2.28095 24.031 1.99024 24.3883 1.99024H61.5142C61.8714 1.99024 62.1621 2.28095 62.1621 2.63827V21.9342H59.1244V11.3319C59.1244 11.0035 58.9624 10.6964 58.6915 10.5109C58.4207 10.3254 58.0757 10.2854 57.7695 10.4041C57.5092 10.505 52.019 12.7471 50.8506 21.9341H23.7404V11.3858C23.7404 10.1023 21.7502 10.1023 21.7502 11.3858V26.8589C21.7502 28.3136 22.9336 29.497 24.3883 29.497H37.7556V33.0851H15.1611C17.3653 30.8834 17.5805 27.3969 17.5805 24.4675C17.5805 23.918 17.1351 23.4724 16.5854 23.4724H11.2117V21.5937C14.4041 22.2723 17.8841 19.6545 17.8415 16.3335C17.8358 15.8888 17.7806 15.4369 17.3697 15.1655C15.4795 13.9179 12.8762 14.4378 11.2117 15.8001V14.0051C14.0555 12.0423 14.2667 7.42016 11.534 5.26274C11.2587 5.0454 10.954 4.83855 10.6272 4.70533C9.22465 4.13268 7.68287 6.63096 7.34864 7.5953C6.55905 9.874 7.27328 12.4948 9.22133 13.9407V15.7891C7.94399 14.7498 6.27577 14.2373 4.64603 14.5637C3.97253 14.6986 2.79231 15.0034 2.64543 15.8198C2.01413 19.3327 5.99369 22.2739 9.22146 21.5967V23.4724H3.44976C2.90005 23.4724 2.45463 23.918 2.45463 24.4675C2.45463 27.3928 2.61332 30.8837 4.81719 33.0851H0.995122C0.445417 33.0851 0 33.5307 0 34.0803V66.9385C0 68.222 1.99024 68.222 1.99024 66.9385V62.2946H19.9688V66.9385C19.9688 68.222 21.959 68.222 21.959 66.9385V41.5961H57.1485C57.1537 41.9428 57.1869 43.8103 57.191 44.37H40.3497C36.4155 44.37 33.5006 45.394 31.6857 47.4136C29.5068 49.8382 29.7937 52.7774 29.8071 52.9012C29.8612 53.4069 30.2879 53.7903 30.7965 53.7903H43.6527V55.5815H39.7385C38.4551 55.5815 38.4551 57.5718 39.7385 57.5718H43.6527V65.9434H30.9151C29.6317 65.9434 29.6317 67.9337 30.9151 67.9337H44.2929C44.4033 67.9758 44.5225 68 44.6478 68C44.7731 68 44.8923 67.9758 45.0027 67.9337H58.3805C59.6639 67.9337 59.6639 65.9434 58.3805 65.9434H45.6429V53.7905H52.2911C54.5757 53.7905 56.227 53.2397 57.34 52.1067C59.2903 50.1211 59.2309 46.7965 59.1556 42.5871C59.1498 42.2615 59.1441 41.9303 59.139 41.596H65.9434V50.9502C65.9434 52.2337 67.9337 52.2337 67.9337 50.9502V34.0803C67.9337 33.5307 67.4882 33.0851 66.9385 33.0851ZM12.8737 17.0492C14.1543 16.2367 15.2685 16.4281 15.8486 16.633C15.6734 18.6958 13.1656 20.1969 11.2487 19.5471C11.3291 18.9088 11.6531 17.8236 12.8737 17.0492ZM6.25918 19.1192C5.41373 18.5828 4.69459 17.659 4.60158 16.6325C6.59447 15.9319 8.93805 17.484 9.19771 19.5471C8.23112 19.8748 7.1065 19.6567 6.25918 19.1192ZM10.2679 6.78925C11.9344 8.0569 11.8597 10.9501 10.2621 12.2364C9.76918 11.8311 9.02562 10.9784 9.02562 9.52425C9.02549 8.00768 9.78417 7.16952 10.2679 6.78925ZM4.45894 25.4626H15.5752C15.4067 30.8383 13.8023 32.9592 10.0174 32.9592C6.18064 32.9594 4.62028 30.9066 4.45894 25.4626ZM55.9201 50.7121C55.2009 51.4444 54.0139 51.8002 52.2911 51.8002H31.8125C31.9045 51.0057 32.2113 49.8065 33.1662 48.7439C34.5875 47.1621 37.0043 46.3602 40.3498 46.3602H57.1655C57.0832 48.3105 56.7884 49.8281 55.9201 50.7121ZM62.1619 23.9245V26.859C62.1619 27.2163 61.8714 27.5069 61.5141 27.5069H59.1243V23.9245H62.1619ZM55.5777 14.7753C56.1196 14.0595 56.6644 13.5268 57.1341 13.1404V38.0666C56.666 37.6655 56.1251 37.1184 55.5871 36.3919C53.6479 33.7728 52.6228 30.0166 52.6228 25.5289C52.6228 21.0478 53.6448 17.3292 55.5777 14.7753ZM50.9002 29.4971C51.0902 30.8366 51.3716 32.0283 51.7146 33.0853H48.1468V29.4971H50.9002ZM23.7404 26.8589V23.9243H50.6741C50.6119 25.1174 50.6191 26.3146 50.6966 27.5068H24.3883C24.031 27.5069 23.7404 27.2162 23.7404 26.8589ZM39.7458 29.4971H46.1565V33.0853H39.7458V29.4971ZM52.4961 35.0754C53.533 37.2912 54.8202 38.7226 55.8616 39.6059H1.99024V35.0754H52.4961ZM1.99024 60.3044V51.9454H19.9688V60.3044H1.99024ZM19.9688 49.9551H1.99024V41.5961H19.9688V49.9551ZM59.1243 39.6059V35.0754H65.9434V39.6059H59.1243Z" fill="url(#paint1_linear)"/>
<path d="M7.23114 46.7707H14.7941C16.0775 46.7707 16.0775 44.7805 14.7941 44.7805H7.23114C5.94769 44.7805 5.94769 46.7707 7.23114 46.7707Z" fill="white"/>
<path d="M7.23114 46.7707H14.7941C16.0775 46.7707 16.0775 44.7805 14.7941 44.7805H7.23114C5.94769 44.7805 5.94769 46.7707 7.23114 46.7707Z" fill="url(#paint2_linear)"/>
<path d="M14.7941 55.1298H7.23114C5.94769 55.1298 5.94769 57.12 7.23114 57.12H14.7941C16.0775 57.12 16.0775 55.1298 14.7941 55.1298Z" fill="white"/>
<path d="M14.7941 55.1298H7.23114C5.94769 55.1298 5.94769 57.12 7.23114 57.12H14.7941C16.0775 57.12 16.0775 55.1298 14.7941 55.1298Z" fill="url(#paint3_linear)"/>
<defs>
<linearGradient id="paint0_linear" x1="66.8759" y1="44.4802" x2="66.8759" y2="67.9012" gradientUnits="userSpaceOnUse">
<stop stop-color="#FCEABB"/>
<stop offset="1" stop-color="#E9C154"/>
</linearGradient>
<linearGradient id="paint1_linear" x1="31.8282" y1="-60.7143" x2="31.8282" y2="68" gradientUnits="userSpaceOnUse">
<stop stop-color="#FCEABB"/>
<stop offset="1" stop-color="#E9C154"/>
</linearGradient>
<linearGradient id="paint2_linear" x1="10.7139" y1="43.0034" x2="10.7139" y2="46.7707" gradientUnits="userSpaceOnUse">
<stop stop-color="#FCEABB"/>
<stop offset="1" stop-color="#E9C154"/>
</linearGradient>
<linearGradient id="paint3_linear" x1="10.7139" y1="53.3527" x2="10.7139" y2="57.12" gradientUnits="userSpaceOnUse">
<stop stop-color="#FCEABB"/>
<stop offset="1" stop-color="#E9C154"/>
</linearGradient>
</defs>
</svg>
