<svg width="69" height="68" viewBox="0 0 69 68" fill="none" xmlns="http://www.w3.org/2000/svg">
<path d="M23.752 36.6829C25.9844 40.7693 32.3047 37.2135 29.932 33.1747C27.6207 29.2411 24.8549 25.5764 21.7117 22.2823C19.8182 20.2977 16.4533 21.1917 15.7085 23.7927C15.3436 25.0553 15.7014 26.4078 16.6423 27.3224C19.4665 30.0681 21.8586 33.2173 23.752 36.6829ZM17.6228 24.3439C17.9511 23.1952 19.4218 22.7683 20.2706 23.6576C23.308 26.8407 25.9806 30.3822 28.2144 34.1838C29.262 35.9671 26.4845 37.5303 25.5003 35.7277C23.5112 32.0871 20.9983 28.7785 18.031 25.8939C17.6187 25.4934 17.4621 24.8999 17.6228 24.3439Z" fill="white"/>
<path d="M23.752 36.6829C25.9844 40.7693 32.3047 37.2135 29.932 33.1747C27.6207 29.2411 24.8549 25.5764 21.7117 22.2823C19.8182 20.2977 16.4533 21.1917 15.7085 23.7927C15.3436 25.0553 15.7014 26.4078 16.6423 27.3224C19.4665 30.0681 21.8586 33.2173 23.752 36.6829ZM17.6228 24.3439C17.9511 23.1952 19.4218 22.7683 20.2706 23.6576C23.308 26.8407 25.9806 30.3822 28.2144 34.1838C29.262 35.9671 26.4845 37.5303 25.5003 35.7277C23.5112 32.0871 20.9983 28.7785 18.031 25.8939C17.6187 25.4934 17.4621 24.8999 17.6228 24.3439Z" fill="url(#paint0_linear)"/>
<path d="M8.85011 19.8159C6.46666 19.8159 4.52747 21.755 4.52747 24.1384V58.3346C4.52747 60.718 6.46666 62.6571 8.85011 62.6571H32.8763C35.3975 62.6571 37.4441 60.3995 37.1765 57.8879C36.6269 52.7299 35.1208 47.5352 34.2721 44.8978C33.6957 43.1068 32.0428 41.9035 30.1585 41.9035H24.0253C23.2637 41.9035 22.5492 41.5306 22.1136 40.906L13.5914 28.6838C13.3174 28.2911 13.1728 27.8302 13.1728 27.351V24.1384C13.1729 21.755 11.2338 19.8159 8.85011 19.8159ZM20.4796 42.0455C21.2873 43.2042 22.6129 43.8959 24.0254 43.8959H30.1587C31.1744 43.8959 32.0653 44.5439 32.3757 45.5083C33.2011 48.0728 34.6649 53.1186 35.1955 58.0991C35.3393 59.4494 34.2323 60.665 32.8763 60.665H8.85011C7.56502 60.665 6.51965 59.6197 6.51965 58.3347V24.1385C6.51965 21.1386 11.1807 21.1335 11.1807 24.1385V27.3511C11.1807 28.2398 11.4493 29.0947 11.9575 29.8234L20.4796 42.0455Z" fill="white"/>
<path d="M8.85011 19.8159C6.46666 19.8159 4.52747 21.755 4.52747 24.1384V58.3346C4.52747 60.718 6.46666 62.6571 8.85011 62.6571H32.8763C35.3975 62.6571 37.4441 60.3995 37.1765 57.8879C36.6269 52.7299 35.1208 47.5352 34.2721 44.8978C33.6957 43.1068 32.0428 41.9035 30.1585 41.9035H24.0253C23.2637 41.9035 22.5492 41.5306 22.1136 40.906L13.5914 28.6838C13.3174 28.2911 13.1728 27.8302 13.1728 27.351V24.1384C13.1729 21.755 11.2338 19.8159 8.85011 19.8159ZM20.4796 42.0455C21.2873 43.2042 22.6129 43.8959 24.0254 43.8959H30.1587C31.1744 43.8959 32.0653 44.5439 32.3757 45.5083C33.2011 48.0728 34.6649 53.1186 35.1955 58.0991C35.3393 59.4494 34.2323 60.665 32.8763 60.665H8.85011C7.56502 60.665 6.51965 59.6197 6.51965 58.3347V24.1385C6.51965 21.1386 11.1807 21.1335 11.1807 24.1385V27.3511C11.1807 28.2398 11.4493 29.0947 11.9575 29.8234L20.4796 42.0455Z" fill="url(#paint1_linear)"/>
<path d="M67.1519 62.4219H66.2445C66.4999 61.8074 66.6367 61.1353 66.6367 60.4468C66.6367 57.9151 64.7469 55.8178 62.3043 55.488V45.8203C62.3043 44.5413 60.3121 44.5395 60.3121 45.8203V48.0117H40.3902C40.3658 48.0117 40.3417 48.0137 40.3178 48.0154C39.1906 43.4695 37.5646 39.0672 35.4761 34.8905V34.332H60.3121V40.2422C60.3121 41.5212 62.3043 41.523 62.3043 40.2422V28.1786C62.3043 25.8728 61.1518 23.7432 59.2217 22.4817L53.2977 18.6106V12.5951C53.2977 10.7765 51.818 9.29688 49.9994 9.29688H45.7889C43.9703 9.29688 42.4906 10.7765 42.4906 12.5951V18.6106L36.5667 22.4817C34.6365 23.7432 33.4841 25.8727 33.4841 28.1786V31.2139C30.2298 25.6529 26.1191 20.5673 21.2459 16.1744C20.4407 15.4486 19.5093 14.899 18.5075 14.5426V10.3291C18.5075 9.77899 18.0616 9.333 17.5114 9.333H16.546V3.06996C16.546 1.37713 15.1688 0 13.4761 0H7.47873C5.78603 0 4.4089 1.37713 4.4089 3.06996V9.33313H3.44362C2.89338 9.33313 2.44753 9.77912 2.44753 10.3292V14.7462C1.07079 15.5766 0.14801 17.0867 0.14801 18.8086V25.1016C0.14801 26.3805 2.1402 26.3824 2.1402 25.1016V18.8086C2.1402 17.2927 3.37349 16.0594 4.88942 16.0594H15.7613C17.297 16.0594 18.7711 16.6257 19.912 17.6541C32.7968 29.2694 40.1865 45.8801 40.1865 63.2272C40.2274 64.6211 39.5415 66.0078 37.9426 66.0078H4.38407C3.14678 66.0078 2.1402 65.0012 2.1402 63.7641V30.6797C2.1402 29.4007 0.14801 29.3988 0.14801 30.6797V63.7641C0.14801 66.0997 2.04829 68 4.38407 68H47.8277C49.1067 68 49.1085 66.0078 47.8277 66.0078H45.4371V64.4141H66.1558V66.0078H53.6714C52.3925 66.0078 52.3906 68 53.6714 68H67.1519C67.7022 68 68.148 67.554 68.148 67.0039V63.418C68.148 62.8679 67.7022 62.4219 67.1519 62.4219ZM6.40109 3.06996C6.40109 2.47563 6.88453 1.99219 7.47873 1.99219H13.476C14.0703 1.99219 14.5537 2.47563 14.5537 3.06996V9.1978H6.40109V3.06996ZM4.88942 14.0672H4.43971V11.3252H16.5152V14.0672H15.7613H4.88942ZM64.6445 60.4468C64.6445 61.1473 64.4058 61.8363 63.9938 62.3555H47.4706C47.4431 62.181 47.4293 62.0035 47.4293 61.8242C47.4293 59.9567 48.9485 58.4375 50.816 58.4375C51.4292 58.4375 52.0299 58.6033 52.5532 58.9168C52.856 59.0984 53.232 59.1058 53.5416 58.9373C53.8514 58.7685 54.0488 58.4485 54.0607 58.0959C54.0983 56.9751 55.0066 56.0972 56.1283 56.0972C57.0552 56.0972 57.8747 56.7222 58.1212 57.6171C58.2108 57.9428 58.4593 58.2007 58.7813 58.3026C59.1033 58.4043 59.4549 58.3359 59.7153 58.1211C60.2527 57.6779 60.9331 57.4337 61.6313 57.4337C63.2928 57.4336 64.6445 58.7853 64.6445 60.4468ZM44.4827 12.5951C44.4827 11.875 45.0685 11.2891 45.7888 11.2891H49.9993C50.7196 11.2891 51.3054 11.875 51.3054 12.5951V18.1953H44.4827V12.5951ZM37.6563 24.1494L43.7193 20.1875H52.0688L58.1318 24.1494C59.497 25.0415 60.3121 26.5478 60.3121 28.1786V32.3398H35.4761V28.1786C35.4761 26.5478 36.2912 25.0415 37.6563 24.1494ZM44.441 62.4219C43.8907 62.4219 43.4449 62.8679 43.4449 63.418V66.0078H41.5332C41.9416 65.3566 42.1786 64.5878 42.1786 63.7641V63.2272C42.1786 58.7491 41.7016 54.3183 40.7783 50.0039H60.3121V55.6199C60.0354 55.6956 59.7654 55.7939 59.5058 55.9155C58.7668 54.8097 57.5083 54.105 56.1285 54.105C54.4075 54.105 52.9426 55.1577 52.3494 56.6682C51.8543 56.521 51.3379 56.4453 50.816 56.4453C47.85 56.4453 45.4371 58.8582 45.4371 61.8242C45.4371 62.025 45.4494 62.2243 45.4712 62.4219H44.441Z" fill="white"/>
<path d="M67.1519 62.4219H66.2445C66.4999 61.8074 66.6367 61.1353 66.6367 60.4468C66.6367 57.9151 64.7469 55.8178 62.3043 55.488V45.8203C62.3043 44.5413 60.3121 44.5395 60.3121 45.8203V48.0117H40.3902C40.3658 48.0117 40.3417 48.0137 40.3178 48.0154C39.1906 43.4695 37.5646 39.0672 35.4761 34.8905V34.332H60.3121V40.2422C60.3121 41.5212 62.3043 41.523 62.3043 40.2422V28.1786C62.3043 25.8728 61.1518 23.7432 59.2217 22.4817L53.2977 18.6106V12.5951C53.2977 10.7765 51.818 9.29688 49.9994 9.29688H45.7889C43.9703 9.29688 42.4906 10.7765 42.4906 12.5951V18.6106L36.5667 22.4817C34.6365 23.7432 33.4841 25.8727 33.4841 28.1786V31.2139C30.2298 25.6529 26.1191 20.5673 21.2459 16.1744C20.4407 15.4486 19.5093 14.899 18.5075 14.5426V10.3291C18.5075 9.77899 18.0616 9.333 17.5114 9.333H16.546V3.06996C16.546 1.37713 15.1688 0 13.4761 0H7.47873C5.78603 0 4.4089 1.37713 4.4089 3.06996V9.33313H3.44362C2.89338 9.33313 2.44753 9.77912 2.44753 10.3292V14.7462C1.07079 15.5766 0.14801 17.0867 0.14801 18.8086V25.1016C0.14801 26.3805 2.1402 26.3824 2.1402 25.1016V18.8086C2.1402 17.2927 3.37349 16.0594 4.88942 16.0594H15.7613C17.297 16.0594 18.7711 16.6257 19.912 17.6541C32.7968 29.2694 40.1865 45.8801 40.1865 63.2272C40.2274 64.6211 39.5415 66.0078 37.9426 66.0078H4.38407C3.14678 66.0078 2.1402 65.0012 2.1402 63.7641V30.6797C2.1402 29.4007 0.14801 29.3988 0.14801 30.6797V63.7641C0.14801 66.0997 2.04829 68 4.38407 68H47.8277C49.1067 68 49.1085 66.0078 47.8277 66.0078H45.4371V64.4141H66.1558V66.0078H53.6714C52.3925 66.0078 52.3906 68 53.6714 68H67.1519C67.7022 68 68.148 67.554 68.148 67.0039V63.418C68.148 62.8679 67.7022 62.4219 67.1519 62.4219ZM6.40109 3.06996C6.40109 2.47563 6.88453 1.99219 7.47873 1.99219H13.476C14.0703 1.99219 14.5537 2.47563 14.5537 3.06996V9.1978H6.40109V3.06996ZM4.88942 14.0672H4.43971V11.3252H16.5152V14.0672H15.7613H4.88942ZM64.6445 60.4468C64.6445 61.1473 64.4058 61.8363 63.9938 62.3555H47.4706C47.4431 62.181 47.4293 62.0035 47.4293 61.8242C47.4293 59.9567 48.9485 58.4375 50.816 58.4375C51.4292 58.4375 52.0299 58.6033 52.5532 58.9168C52.856 59.0984 53.232 59.1058 53.5416 58.9373C53.8514 58.7685 54.0488 58.4485 54.0607 58.0959C54.0983 56.9751 55.0066 56.0972 56.1283 56.0972C57.0552 56.0972 57.8747 56.7222 58.1212 57.6171C58.2108 57.9428 58.4593 58.2007 58.7813 58.3026C59.1033 58.4043 59.4549 58.3359 59.7153 58.1211C60.2527 57.6779 60.9331 57.4337 61.6313 57.4337C63.2928 57.4336 64.6445 58.7853 64.6445 60.4468ZM44.4827 12.5951C44.4827 11.875 45.0685 11.2891 45.7888 11.2891H49.9993C50.7196 11.2891 51.3054 11.875 51.3054 12.5951V18.1953H44.4827V12.5951ZM37.6563 24.1494L43.7193 20.1875H52.0688L58.1318 24.1494C59.497 25.0415 60.3121 26.5478 60.3121 28.1786V32.3398H35.4761V28.1786C35.4761 26.5478 36.2912 25.0415 37.6563 24.1494ZM44.441 62.4219C43.8907 62.4219 43.4449 62.8679 43.4449 63.418V66.0078H41.5332C41.9416 65.3566 42.1786 64.5878 42.1786 63.7641V63.2272C42.1786 58.7491 41.7016 54.3183 40.7783 50.0039H60.3121V55.6199C60.0354 55.6956 59.7654 55.7939 59.5058 55.9155C58.7668 54.8097 57.5083 54.105 56.1285 54.105C54.4075 54.105 52.9426 55.1577 52.3494 56.6682C51.8543 56.521 51.3379 56.4453 50.816 56.4453C47.85 56.4453 45.4371 58.8582 45.4371 61.8242C45.4371 62.025 45.4494 62.2243 45.4712 62.4219H44.441Z" fill="url(#paint2_linear)"/>
<defs>
<linearGradient id="paint0_linear" x1="22.5435" y1="5.76363" x2="22.5435" y2="38.4935" gradientUnits="userSpaceOnUse">
<stop stop-color="#FCEABB"/>
<stop offset="1" stop-color="#E9C154"/>
</linearGradient>
<linearGradient id="paint1_linear" x1="19.8352" y1="-18.4352" x2="19.8352" y2="62.6571" gradientUnits="userSpaceOnUse">
<stop stop-color="#FCEABB"/>
<stop offset="1" stop-color="#E9C154"/>
</linearGradient>
<linearGradient id="paint2_linear" x1="32.0073" y1="-60.7143" x2="32.0073" y2="68" gradientUnits="userSpaceOnUse">
<stop stop-color="#FCEABB"/>
<stop offset="1" stop-color="#E9C154"/>
</linearGradient>
</defs>
</svg>
