<svg width="96" height="69" viewBox="0 0 96 69" fill="none" xmlns="http://www.w3.org/2000/svg">
<path d="M64.4532 21.4582C62.6859 19.7252 60.3663 18.7658 57.9003 18.7548V9.65369C57.9003 6.7467 56.6031 3.89098 54.43 2.01598C52.6004 0.436873 50.3548 -0.249408 48.1063 0.0816473C38.1051 1.55602 29.1849 1.55602 19.1844 0.0816473C16.9351 -0.250141 14.6902 0.43614 12.8614 2.01524C10.689 3.89025 9.39186 6.74597 9.39186 9.65369V18.7548C8.06398 18.7614 6.77711 19.0434 5.56935 19.589C4.86109 19.9083 4.54688 20.7411 4.86622 21.4494C5.18556 22.1576 6.01905 22.4726 6.72658 22.1525C7.62819 21.7453 8.59499 21.5512 9.59474 21.5688C9.91042 21.5753 10.221 21.6046 10.5249 21.6552C10.5469 21.6596 10.5689 21.6632 10.5916 21.6669C13.708 22.2228 16.1023 25.0397 16.1023 28.3715V45.6076C16.1023 47.9089 17.9744 49.781 20.2764 49.781H47.015C49.3163 49.781 51.1883 47.9089 51.1883 45.6076V28.3715C51.1883 24.6925 54.1078 21.6405 57.6966 21.5688C59.5006 21.5351 61.1991 22.2067 62.4845 23.4665C63.7706 24.727 64.4789 26.4123 64.4789 28.2126C64.4789 30.7848 62.9701 33.1498 60.6359 34.2375C60.14 34.4682 59.8236 34.9655 59.8236 35.5119V54.2129C59.8236 56.531 57.9383 58.4162 55.6202 58.4162H11.6704C9.35305 58.4162 7.46706 56.531 7.46706 54.2129V35.5119C7.46706 34.9655 7.15065 34.4689 6.6548 34.2375C4.32056 33.1498 2.81251 30.7848 2.81251 28.2126C2.81251 27.2099 3.0293 26.2475 3.45777 25.3525C3.79249 24.6515 3.49586 23.8114 2.79493 23.4767C2.094 23.142 1.25464 23.4386 0.919924 24.1396C0.309083 25.4169 0 26.7873 0 28.2126C0 31.5656 1.8003 34.6703 4.65455 36.3586V54.2129C4.65455 58.0815 7.80177 61.2287 11.6704 61.2287H12.9895V65.5127C12.9895 67.0112 14.209 68.2314 15.7075 68.2314H17.9803C19.4795 68.2314 20.699 67.0112 20.699 65.5127V61.2287H46.5916V65.5127C46.5916 67.0112 47.8111 68.2314 49.3104 68.2314H51.5831C53.0824 68.2314 54.3019 67.0112 54.3019 65.5127V61.2287H55.6202C59.4889 61.2287 62.6368 58.0815 62.6368 54.2129V36.3586C65.4911 34.6703 67.2914 31.5649 67.2914 28.2126C67.2914 25.6505 66.2836 23.2519 64.4532 21.4582ZM48.3758 45.6076C48.3758 46.3576 47.765 46.9685 47.015 46.9685H20.2764C19.5257 46.9685 18.9148 46.3576 18.9148 45.6076V39.6874H48.3758V45.6076ZM48.3758 28.3715V36.8749H18.9148V28.3715C18.9148 24.0729 16.0745 20.3808 12.2044 19.1723V9.65369C12.2044 7.58386 13.1602 5.47228 14.6997 4.14367C15.5486 3.41124 16.9446 2.59313 18.7742 2.86412C29.0589 4.37951 38.2318 4.37951 48.5172 2.86412C50.3468 2.59386 51.7428 3.41124 52.5924 4.1444C54.1312 5.47302 55.0878 7.58386 55.0878 9.65369V19.1723C51.2169 20.38 48.3758 24.0729 48.3758 28.3715ZM17.8865 65.4189H15.802V61.2287H17.8865V65.4189ZM51.4894 65.4189H49.4041V61.2287H51.4894V65.4189Z" fill="white"/>
<path d="M64.4532 21.4582C62.6859 19.7252 60.3663 18.7658 57.9003 18.7548V9.65369C57.9003 6.7467 56.6031 3.89098 54.43 2.01598C52.6004 0.436873 50.3548 -0.249408 48.1063 0.0816473C38.1051 1.55602 29.1849 1.55602 19.1844 0.0816473C16.9351 -0.250141 14.6902 0.43614 12.8614 2.01524C10.689 3.89025 9.39186 6.74597 9.39186 9.65369V18.7548C8.06398 18.7614 6.77711 19.0434 5.56935 19.589C4.86109 19.9083 4.54688 20.7411 4.86622 21.4494C5.18556 22.1576 6.01905 22.4726 6.72658 22.1525C7.62819 21.7453 8.59499 21.5512 9.59474 21.5688C9.91042 21.5753 10.221 21.6046 10.5249 21.6552C10.5469 21.6596 10.5689 21.6632 10.5916 21.6669C13.708 22.2228 16.1023 25.0397 16.1023 28.3715V45.6076C16.1023 47.9089 17.9744 49.781 20.2764 49.781H47.015C49.3163 49.781 51.1883 47.9089 51.1883 45.6076V28.3715C51.1883 24.6925 54.1078 21.6405 57.6966 21.5688C59.5006 21.5351 61.1991 22.2067 62.4845 23.4665C63.7706 24.727 64.4789 26.4123 64.4789 28.2126C64.4789 30.7848 62.9701 33.1498 60.6359 34.2375C60.14 34.4682 59.8236 34.9655 59.8236 35.5119V54.2129C59.8236 56.531 57.9383 58.4162 55.6202 58.4162H11.6704C9.35305 58.4162 7.46706 56.531 7.46706 54.2129V35.5119C7.46706 34.9655 7.15065 34.4689 6.6548 34.2375C4.32056 33.1498 2.81251 30.7848 2.81251 28.2126C2.81251 27.2099 3.0293 26.2475 3.45777 25.3525C3.79249 24.6515 3.49586 23.8114 2.79493 23.4767C2.094 23.142 1.25464 23.4386 0.919924 24.1396C0.309083 25.4169 0 26.7873 0 28.2126C0 31.5656 1.8003 34.6703 4.65455 36.3586V54.2129C4.65455 58.0815 7.80177 61.2287 11.6704 61.2287H12.9895V65.5127C12.9895 67.0112 14.209 68.2314 15.7075 68.2314H17.9803C19.4795 68.2314 20.699 67.0112 20.699 65.5127V61.2287H46.5916V65.5127C46.5916 67.0112 47.8111 68.2314 49.3104 68.2314H51.5831C53.0824 68.2314 54.3019 67.0112 54.3019 65.5127V61.2287H55.6202C59.4889 61.2287 62.6368 58.0815 62.6368 54.2129V36.3586C65.4911 34.6703 67.2914 31.5649 67.2914 28.2126C67.2914 25.6505 66.2836 23.2519 64.4532 21.4582ZM48.3758 45.6076C48.3758 46.3576 47.765 46.9685 47.015 46.9685H20.2764C19.5257 46.9685 18.9148 46.3576 18.9148 45.6076V39.6874H48.3758V45.6076ZM48.3758 28.3715V36.8749H18.9148V28.3715C18.9148 24.0729 16.0745 20.3808 12.2044 19.1723V9.65369C12.2044 7.58386 13.1602 5.47228 14.6997 4.14367C15.5486 3.41124 16.9446 2.59313 18.7742 2.86412C29.0589 4.37951 38.2318 4.37951 48.5172 2.86412C50.3468 2.59386 51.7428 3.41124 52.5924 4.1444C54.1312 5.47302 55.0878 7.58386 55.0878 9.65369V19.1723C51.2169 20.38 48.3758 24.0729 48.3758 28.3715ZM17.8865 65.4189H15.802V61.2287H17.8865V65.4189ZM51.4894 65.4189H49.4041V61.2287H51.4894V65.4189Z" fill="url(#paint0_linear)"/>
<path d="M26.2121 14.6583H25.7199V14.1661C25.7199 13.389 25.09 12.7599 24.3136 12.7599C23.5373 12.7599 22.9074 13.389 22.9074 14.1661V14.6583H22.4152C21.6388 14.6583 21.0089 15.2875 21.0089 16.0646C21.0089 16.8409 21.6388 17.4708 22.4152 17.4708H22.9074V17.963C22.9074 18.7394 23.5373 19.3693 24.3136 19.3693C25.09 19.3693 25.7199 18.7394 25.7199 17.963V17.4708H26.2121C26.9884 17.4708 27.6183 16.8409 27.6183 16.0646C27.6183 15.2875 26.9884 14.6583 26.2121 14.6583Z" fill="white"/>
<path d="M26.2121 14.6583H25.7199V14.1661C25.7199 13.389 25.09 12.7599 24.3136 12.7599C23.5373 12.7599 22.9074 13.389 22.9074 14.1661V14.6583H22.4152C21.6388 14.6583 21.0089 15.2875 21.0089 16.0646C21.0089 16.8409 21.6388 17.4708 22.4152 17.4708H22.9074V17.963C22.9074 18.7394 23.5373 19.3693 24.3136 19.3693C25.09 19.3693 25.7199 18.7394 25.7199 17.963V17.4708H26.2121C26.9884 17.4708 27.6183 16.8409 27.6183 16.0646C27.6183 15.2875 26.9884 14.6583 26.2121 14.6583Z" fill="url(#paint1_linear)"/>
<path d="M44.8756 14.6583H44.3841V14.1661C44.3841 13.389 43.7542 12.7599 42.9779 12.7599C42.2008 12.7599 41.5716 13.389 41.5716 14.1661V14.6583H41.0794C40.3023 14.6583 39.6732 15.2875 39.6732 16.0646C39.6732 16.8409 40.3023 17.4708 41.0794 17.4708H41.5716V17.963C41.5716 18.7394 42.2008 19.3693 42.9779 19.3693C43.7542 19.3693 44.3841 18.7394 44.3841 17.963V17.4708H44.8756C45.6527 17.4708 46.2818 16.8409 46.2818 16.0646C46.2818 15.2875 45.6527 14.6583 44.8756 14.6583Z" fill="white"/>
<path d="M44.8756 14.6583H44.3841V14.1661C44.3841 13.389 43.7542 12.7599 42.9779 12.7599C42.2008 12.7599 41.5716 13.389 41.5716 14.1661V14.6583H41.0794C40.3023 14.6583 39.6732 15.2875 39.6732 16.0646C39.6732 16.8409 40.3023 17.4708 41.0794 17.4708H41.5716V17.963C41.5716 18.7394 42.2008 19.3693 42.9779 19.3693C43.7542 19.3693 44.3841 18.7394 44.3841 17.963V17.4708H44.8756C45.6527 17.4708 46.2818 16.8409 46.2818 16.0646C46.2818 15.2875 45.6527 14.6583 44.8756 14.6583Z" fill="url(#paint2_linear)"/>
<path d="M93.0105 30.6464H83.9065V24.3073H88.8738C89.7051 24.3073 90.4866 23.9008 90.9641 23.2197C91.4409 22.5392 91.5567 21.6655 91.2725 20.884L88.1824 12.3695C87.8169 11.3639 86.853 10.6886 85.783 10.6886H79.2175C78.1475 10.6886 77.1836 11.3639 76.8181 12.3703L73.728 20.884C73.4438 21.6655 73.5596 22.5392 74.0364 23.2197C74.5139 23.9008 75.2954 24.3073 76.1267 24.3073H81.094V30.6464H70.6189C68.9702 30.6464 67.6291 31.9875 67.6291 33.6362V35.3259C67.6291 36.9746 68.9702 38.3156 70.6189 38.3156H70.6606V41.0051C70.6606 41.7822 71.2898 42.4114 72.0669 42.4114C72.8432 42.4114 73.4731 41.7822 73.4731 41.0051V38.3156H90.1563V47.6526H73.4731V46.6301C73.4731 45.853 72.8432 45.2239 72.0669 45.2239C71.2898 45.2239 70.6606 45.853 70.6606 46.6301V60.3198C70.6606 61.2808 71.2539 62.1055 72.094 62.4475V65.8958C72.094 67.1834 73.1421 68.2315 74.4297 68.2315H76.5083C77.7959 68.2315 78.844 67.1834 78.844 65.8958V62.6153H84.2815V65.8958C84.2815 67.1834 85.3296 68.2315 86.6172 68.2315H88.6958C89.9834 68.2315 91.0315 67.1834 91.0315 65.8958V62.5874C92.1279 62.4153 92.9688 61.4639 92.9688 60.3198V38.3156H93.0105C94.6592 38.3156 96.0003 36.9746 96.0003 35.3259V33.6362C96.0003 31.9875 94.6592 30.6464 93.0105 30.6464ZM79.3999 13.5011H85.6006L88.5025 21.4948H76.498L79.3999 13.5011ZM90.1563 50.4651V59.8027H73.4731V50.4651H90.1563ZM76.0315 65.4182H74.9065V62.6153H76.0315V65.4182ZM88.219 65.4182H87.094V62.6153H88.219V65.4182ZM93.1878 35.3259C93.1878 35.4233 93.1079 35.5031 93.0105 35.5031H70.6189C70.5215 35.5031 70.4416 35.4233 70.4416 35.3259V33.6362C70.4416 33.538 70.5215 33.4589 70.6189 33.4589H93.0105C93.1079 33.4589 93.1878 33.538 93.1878 33.6362V35.3259Z" fill="white"/>
<path d="M93.0105 30.6464H83.9065V24.3073H88.8738C89.7051 24.3073 90.4866 23.9008 90.9641 23.2197C91.4409 22.5392 91.5567 21.6655 91.2725 20.884L88.1824 12.3695C87.8169 11.3639 86.853 10.6886 85.783 10.6886H79.2175C78.1475 10.6886 77.1836 11.3639 76.8181 12.3703L73.728 20.884C73.4438 21.6655 73.5596 22.5392 74.0364 23.2197C74.5139 23.9008 75.2954 24.3073 76.1267 24.3073H81.094V30.6464H70.6189C68.9702 30.6464 67.6291 31.9875 67.6291 33.6362V35.3259C67.6291 36.9746 68.9702 38.3156 70.6189 38.3156H70.6606V41.0051C70.6606 41.7822 71.2898 42.4114 72.0669 42.4114C72.8432 42.4114 73.4731 41.7822 73.4731 41.0051V38.3156H90.1563V47.6526H73.4731V46.6301C73.4731 45.853 72.8432 45.2239 72.0669 45.2239C71.2898 45.2239 70.6606 45.853 70.6606 46.6301V60.3198C70.6606 61.2808 71.2539 62.1055 72.094 62.4475V65.8958C72.094 67.1834 73.1421 68.2315 74.4297 68.2315H76.5083C77.7959 68.2315 78.844 67.1834 78.844 65.8958V62.6153H84.2815V65.8958C84.2815 67.1834 85.3296 68.2315 86.6172 68.2315H88.6958C89.9834 68.2315 91.0315 67.1834 91.0315 65.8958V62.5874C92.1279 62.4153 92.9688 61.4639 92.9688 60.3198V38.3156H93.0105C94.6592 38.3156 96.0003 36.9746 96.0003 35.3259V33.6362C96.0003 31.9875 94.6592 30.6464 93.0105 30.6464ZM79.3999 13.5011H85.6006L88.5025 21.4948H76.498L79.3999 13.5011ZM90.1563 50.4651V59.8027H73.4731V50.4651H90.1563ZM76.0315 65.4182H74.9065V62.6153H76.0315V65.4182ZM88.219 65.4182H87.094V62.6153H88.219V65.4182ZM93.1878 35.3259C93.1878 35.4233 93.1079 35.5031 93.0105 35.5031H70.6189C70.5215 35.5031 70.4416 35.4233 70.4416 35.3259V33.6362C70.4416 33.538 70.5215 33.4589 70.6189 33.4589H93.0105C93.1079 33.4589 93.1878 33.538 93.1878 33.6362V35.3259Z" fill="url(#paint3_linear)"/>
<path d="M82.813 42.084C83.5893 42.084 84.2192 41.4548 84.2192 40.6777C84.2192 39.9006 83.5893 39.2714 82.813 39.2714H80.8164C80.04 39.2714 79.4101 39.9006 79.4101 40.6777C79.4101 41.4548 80.04 42.084 80.8164 42.084H82.813Z" fill="white"/>
<path d="M82.813 42.084C83.5893 42.084 84.2192 41.4548 84.2192 40.6777C84.2192 39.9006 83.5893 39.2714 82.813 39.2714H80.8164C80.04 39.2714 79.4101 39.9006 79.4101 40.6777C79.4101 41.4548 80.04 42.084 80.8164 42.084H82.813Z" fill="url(#paint4_linear)"/>
<path d="M80.8164 54.2715H82.813C83.5893 54.2715 84.2192 53.6423 84.2192 52.8652C84.2192 52.0881 83.5893 51.459 82.813 51.459H80.8164C80.04 51.459 79.4101 52.0881 79.4101 52.8652C79.4101 53.6423 80.04 54.2715 80.8164 54.2715Z" fill="white"/>
<path d="M80.8164 54.2715H82.813C83.5893 54.2715 84.2192 53.6423 84.2192 52.8652C84.2192 52.0881 83.5893 51.459 82.813 51.459H80.8164C80.04 51.459 79.4101 52.0881 79.4101 52.8652C79.4101 53.6423 80.04 54.2715 80.8164 54.2715Z" fill="url(#paint5_linear)"/>
<defs>
<linearGradient id="paint0_linear" x1="31.5273" y1="-60.9209" x2="31.5273" y2="68.2314" gradientUnits="userSpaceOnUse">
<stop stop-color="#FCEABB"/>
<stop offset="1" stop-color="#E9C154"/>
</linearGradient>
<linearGradient id="paint1_linear" x1="24.1056" y1="6.85865" x2="24.1056" y2="19.3693" gradientUnits="userSpaceOnUse">
<stop stop-color="#FCEABB"/>
<stop offset="1" stop-color="#E9C154"/>
</linearGradient>
<linearGradient id="paint2_linear" x1="42.7694" y1="6.85865" x2="42.7694" y2="19.3693" gradientUnits="userSpaceOnUse">
<stop stop-color="#FCEABB"/>
<stop offset="1" stop-color="#E9C154"/>
</linearGradient>
<linearGradient id="paint3_linear" x1="80.9215" y1="-40.6889" x2="80.9215" y2="68.2315" gradientUnits="userSpaceOnUse">
<stop stop-color="#FCEABB"/>
<stop offset="1" stop-color="#E9C154"/>
</linearGradient>
<linearGradient id="paint4_linear" x1="81.6633" y1="36.7602" x2="81.6633" y2="42.084" gradientUnits="userSpaceOnUse">
<stop stop-color="#FCEABB"/>
<stop offset="1" stop-color="#E9C154"/>
</linearGradient>
<linearGradient id="paint5_linear" x1="81.6633" y1="48.9478" x2="81.6633" y2="54.2715" gradientUnits="userSpaceOnUse">
<stop stop-color="#FCEABB"/>
<stop offset="1" stop-color="#E9C154"/>
</linearGradient>
</defs>
</svg>
