<svg width="100" height="100" viewBox="0 0 100 100" fill="none" xmlns="http://www.w3.org/2000/svg">
<path d="M41.6451 45.7776H32.5925C31.7203 45.7776 31.0136 46.4846 31.0136 47.3565C31.0136 48.2286 31.7203 48.9354 32.5925 48.9354H41.6451C42.5173 48.9354 43.224 48.2284 43.224 47.3565C43.224 46.4844 42.5171 45.7776 41.6451 45.7776Z" fill="white"/>
<path d="M41.6451 45.7776H32.5925C31.7203 45.7776 31.0136 46.4846 31.0136 47.3565C31.0136 48.2286 31.7203 48.9354 32.5925 48.9354H41.6451C42.5173 48.9354 43.224 48.2284 43.224 47.3565C43.224 46.4844 42.5171 45.7776 41.6451 45.7776Z" fill="url(#paint0_linear)"/>
<path d="M79.9999 93.7777H89.0525C89.9247 93.7777 90.6314 93.071 90.6314 92.1988C90.6314 91.3267 89.9245 90.6199 89.0525 90.6199H79.9999C79.1277 90.6199 78.421 91.3269 78.421 92.1988C78.421 93.0708 79.1277 93.7777 79.9999 93.7777Z" fill="white"/>
<path d="M79.9999 93.7777H89.0525C89.9247 93.7777 90.6314 93.071 90.6314 92.1988C90.6314 91.3267 89.9245 90.6199 89.0525 90.6199H79.9999C79.1277 90.6199 78.421 91.3269 78.421 92.1988C78.421 93.0708 79.1277 93.7777 79.9999 93.7777Z" fill="url(#paint1_linear)"/>
<path d="M29.6841 15.4618H38.7367C39.6089 15.4618 40.3156 14.7547 40.3156 13.8829C40.3156 13.0108 39.6087 12.304 38.7367 12.304H29.6841C28.8119 12.304 28.1052 13.011 28.1052 13.8829C28.1052 14.7547 28.8119 15.4618 29.6841 15.4618Z" fill="white"/>
<path d="M29.6841 15.4618H38.7367C39.6089 15.4618 40.3156 14.7547 40.3156 13.8829C40.3156 13.0108 39.6087 12.304 38.7367 12.304H29.6841C28.8119 12.304 28.1052 13.011 28.1052 13.8829C28.1052 14.7547 28.8119 15.4618 29.6841 15.4618Z" fill="url(#paint2_linear)"/>
<path d="M41.6451 51.0408H32.5925C31.7203 51.0408 31.0136 51.7476 31.0136 52.6197C31.0136 53.4917 31.7203 54.1986 32.5925 54.1986H41.6451C42.5173 54.1986 43.224 53.4917 43.224 52.6197C43.224 51.7478 42.5171 51.0408 41.6451 51.0408Z" fill="white"/>
<path d="M41.6451 51.0408H32.5925C31.7203 51.0408 31.0136 51.7476 31.0136 52.6197C31.0136 53.4917 31.7203 54.1986 32.5925 54.1986H41.6451C42.5173 54.1986 43.224 53.4917 43.224 52.6197C43.224 51.7478 42.5171 51.0408 41.6451 51.0408Z" fill="url(#paint3_linear)"/>
<path d="M32.5923 87.6725H41.6449C42.5171 87.6725 43.2238 86.9656 43.2238 86.0936C43.2238 85.2215 42.5171 84.5146 41.6449 84.5146H32.5923C31.7201 84.5146 31.0134 85.2217 31.0134 86.0936C31.0134 86.9656 31.7205 87.6725 32.5923 87.6725Z" fill="white"/>
<path d="M32.5923 87.6725H41.6449C42.5171 87.6725 43.2238 86.9656 43.2238 86.0936C43.2238 85.2215 42.5171 84.5146 41.6449 84.5146H32.5923C31.7201 84.5146 31.0134 85.2217 31.0134 86.0936C31.0134 86.9656 31.7205 87.6725 32.5923 87.6725Z" fill="url(#paint4_linear)"/>
<path d="M32.5923 92.9354H41.6449C42.5171 92.9354 43.2238 92.2288 43.2238 91.3565C43.2238 90.4844 42.5171 89.7776 41.6449 89.7776H32.5923C31.7201 89.7776 31.0134 90.4846 31.0134 91.3565C31.0134 92.2288 31.7205 92.9354 32.5923 92.9354Z" fill="white"/>
<path d="M32.5923 92.9354H41.6449C42.5171 92.9354 43.2238 92.2288 43.2238 91.3565C43.2238 90.4844 42.5171 89.7776 41.6449 89.7776H32.5923C31.7201 89.7776 31.0134 90.4846 31.0134 91.3565C31.0134 92.2288 31.7205 92.9354 32.5923 92.9354Z" fill="url(#paint5_linear)"/>
<path d="M97.2256 78.3168H86.1838V61.5789C86.1838 60.7066 85.4771 60 84.6049 60C83.7326 60 83.026 60.7066 83.026 61.5789V78.3168H70.8016C69.2717 78.3168 68.0272 79.5611 68.0272 81.0912V86.4107V96.8422H50.0914C49.9529 96.8422 49.8402 96.7293 49.8402 96.5908V95.8947V61.7889V56.7361V38.7838C49.8402 38.6451 49.9529 38.5324 50.0914 38.5324H59.3805V56.5326C59.3805 57.1379 59.7266 57.6898 60.2713 57.9537C60.8156 58.2176 61.4637 58.1467 61.9385 57.7715L66.4332 54.2188L70.9279 57.7715C71.2121 57.9961 71.5582 58.1117 71.907 58.1117C72.141 58.1117 72.3764 58.0598 72.5951 57.9539C73.14 57.69 73.4859 57.1381 73.4859 56.5328V38.5326H82.7746C82.9133 38.5326 83.0262 38.6455 83.0262 38.784V56.316C83.0262 57.1883 83.7328 57.8949 84.6051 57.8949C85.4773 57.8949 86.184 57.1881 86.184 56.316V38.784C86.184 36.9039 84.6543 35.3748 82.7746 35.3748H71.907H60.9598H50.0918C50.007 35.3748 49.9238 35.3813 49.8406 35.3875V22.6307C49.8406 21.8801 49.6348 21.1783 49.2816 20.5721C49.6309 20.108 49.8406 19.5334 49.8406 18.9092V8.09355V2.77402C49.84 1.24434 48.5955 0 47.0658 0H20.6414C19.1117 0 17.8676 1.24434 17.8676 2.77402V8.09375V18.5254H4.10527C1.8416 18.5252 0 20.367 0 22.6305V56.7363C0 57.6893 0.329297 58.5652 0.876172 59.2627C0.329297 59.96 0 60.8359 0 61.7889V95.8947C0 98.1584 1.8416 100 4.10527 100H36.0352C36.9074 100 37.6141 99.2934 37.6141 98.4211C37.6141 97.5488 36.9074 96.8422 36.0352 96.8422H4.10527C3.58301 96.8422 3.15781 96.4172 3.15781 95.8947V61.7889C3.15781 61.2664 3.58281 60.8414 4.10527 60.8414H17.8676V78.8416C17.8676 79.4469 18.2137 79.9988 18.7584 80.2627C19.3027 80.5266 19.9508 80.4557 20.4256 80.0805L24.9203 76.5279L29.415 80.0805C29.6992 80.3051 30.0453 80.4207 30.3941 80.4207C30.6281 80.4207 30.8635 80.3688 31.0822 80.2629C31.6271 79.999 31.973 79.4471 31.973 78.8418V60.8416H45.735C46.2572 60.8416 46.6824 61.2664 46.6824 61.7891V95.8949C46.6824 96.4172 46.2574 96.8424 45.735 96.8424H41.4391C40.5668 96.8424 39.8602 97.5492 39.8602 98.4213C39.8602 99.2936 40.5668 100 41.4391 100H45.735C46.5836 100 47.3729 99.7412 48.0279 99.2984C48.6016 99.7367 49.3152 100 50.0912 100L70.7674 100C70.7785 100 70.7895 100 70.8008 100L70.8012 99.9998H97.2256C98.7555 99.9998 99.9998 98.7557 99.9998 97.226V86.4105V81.091C100 79.5613 98.7557 78.3168 97.2256 78.3168ZM62.5383 38.5322H70.3277V53.2719L67.4119 50.9674C67.1252 50.7406 66.7789 50.6271 66.433 50.6271C66.0871 50.6271 65.7408 50.7406 65.4541 50.9674L62.5383 53.2719V38.5322ZM21.0254 21.683H28.8148V36.4227L25.899 34.118C25.6123 33.891 25.266 33.7777 24.9201 33.7777C24.5742 33.7777 24.2279 33.8912 23.9412 34.118L21.0254 36.4227V21.683ZM28.815 75.5811L25.8992 73.2766C25.6125 73.0498 25.2662 72.9363 24.9203 72.9363C24.5744 72.9363 24.2281 73.0498 23.9414 73.2766L21.0256 75.5811V60.8414H28.815V75.5811ZM46.682 38.7838V56.7361C46.682 57.2584 46.257 57.6836 45.7346 57.6836H30.3937H19.4465H4.10527C3.58301 57.6836 3.15781 57.2586 3.15781 56.7361V22.6303C3.15781 22.108 3.58281 21.6828 4.10527 21.6828H17.8676V39.683C17.8676 40.2883 18.2137 40.8402 18.7584 41.1041C19.3027 41.3682 19.9508 41.2971 20.4256 40.9219L24.9203 37.3693L29.415 40.9219C29.6992 41.1465 30.0453 41.2621 30.3941 41.2621C30.6281 41.2621 30.8635 41.2102 31.0822 41.1043C31.6271 40.8404 31.973 40.2885 31.973 39.6832V21.683H45.735C46.2572 21.683 46.6824 22.108 46.6824 22.6305V38.7838H46.682ZM46.682 18.525H45.7346H30.3937H21.0254V9.67246H46.682V18.525ZM46.682 6.51445H21.0254V3.15781H46.682V6.51445ZM96.8422 96.842H71.185V87.9896H96.842V96.842H96.8422ZM96.8422 84.8316H71.185V81.4748H84.6047H96.842V84.8316H96.8422Z" fill="white"/>
<path d="M97.2256 78.3168H86.1838V61.5789C86.1838 60.7066 85.4771 60 84.6049 60C83.7326 60 83.026 60.7066 83.026 61.5789V78.3168H70.8016C69.2717 78.3168 68.0272 79.5611 68.0272 81.0912V86.4107V96.8422H50.0914C49.9529 96.8422 49.8402 96.7293 49.8402 96.5908V95.8947V61.7889V56.7361V38.7838C49.8402 38.6451 49.9529 38.5324 50.0914 38.5324H59.3805V56.5326C59.3805 57.1379 59.7266 57.6898 60.2713 57.9537C60.8156 58.2176 61.4637 58.1467 61.9385 57.7715L66.4332 54.2188L70.9279 57.7715C71.2121 57.9961 71.5582 58.1117 71.907 58.1117C72.141 58.1117 72.3764 58.0598 72.5951 57.9539C73.14 57.69 73.4859 57.1381 73.4859 56.5328V38.5326H82.7746C82.9133 38.5326 83.0262 38.6455 83.0262 38.784V56.316C83.0262 57.1883 83.7328 57.8949 84.6051 57.8949C85.4773 57.8949 86.184 57.1881 86.184 56.316V38.784C86.184 36.9039 84.6543 35.3748 82.7746 35.3748H71.907H60.9598H50.0918C50.007 35.3748 49.9238 35.3813 49.8406 35.3875V22.6307C49.8406 21.8801 49.6348 21.1783 49.2816 20.5721C49.6309 20.108 49.8406 19.5334 49.8406 18.9092V8.09355V2.77402C49.84 1.24434 48.5955 0 47.0658 0H20.6414C19.1117 0 17.8676 1.24434 17.8676 2.77402V8.09375V18.5254H4.10527C1.8416 18.5252 0 20.367 0 22.6305V56.7363C0 57.6893 0.329297 58.5652 0.876172 59.2627C0.329297 59.96 0 60.8359 0 61.7889V95.8947C0 98.1584 1.8416 100 4.10527 100H36.0352C36.9074 100 37.6141 99.2934 37.6141 98.4211C37.6141 97.5488 36.9074 96.8422 36.0352 96.8422H4.10527C3.58301 96.8422 3.15781 96.4172 3.15781 95.8947V61.7889C3.15781 61.2664 3.58281 60.8414 4.10527 60.8414H17.8676V78.8416C17.8676 79.4469 18.2137 79.9988 18.7584 80.2627C19.3027 80.5266 19.9508 80.4557 20.4256 80.0805L24.9203 76.5279L29.415 80.0805C29.6992 80.3051 30.0453 80.4207 30.3941 80.4207C30.6281 80.4207 30.8635 80.3688 31.0822 80.2629C31.6271 79.999 31.973 79.4471 31.973 78.8418V60.8416H45.735C46.2572 60.8416 46.6824 61.2664 46.6824 61.7891V95.8949C46.6824 96.4172 46.2574 96.8424 45.735 96.8424H41.4391C40.5668 96.8424 39.8602 97.5492 39.8602 98.4213C39.8602 99.2936 40.5668 100 41.4391 100H45.735C46.5836 100 47.3729 99.7412 48.0279 99.2984C48.6016 99.7367 49.3152 100 50.0912 100L70.7674 100C70.7785 100 70.7895 100 70.8008 100L70.8012 99.9998H97.2256C98.7555 99.9998 99.9998 98.7557 99.9998 97.226V86.4105V81.091C100 79.5613 98.7557 78.3168 97.2256 78.3168ZM62.5383 38.5322H70.3277V53.2719L67.4119 50.9674C67.1252 50.7406 66.7789 50.6271 66.433 50.6271C66.0871 50.6271 65.7408 50.7406 65.4541 50.9674L62.5383 53.2719V38.5322ZM21.0254 21.683H28.8148V36.4227L25.899 34.118C25.6123 33.891 25.266 33.7777 24.9201 33.7777C24.5742 33.7777 24.2279 33.8912 23.9412 34.118L21.0254 36.4227V21.683ZM28.815 75.5811L25.8992 73.2766C25.6125 73.0498 25.2662 72.9363 24.9203 72.9363C24.5744 72.9363 24.2281 73.0498 23.9414 73.2766L21.0256 75.5811V60.8414H28.815V75.5811ZM46.682 38.7838V56.7361C46.682 57.2584 46.257 57.6836 45.7346 57.6836H30.3937H19.4465H4.10527C3.58301 57.6836 3.15781 57.2586 3.15781 56.7361V22.6303C3.15781 22.108 3.58281 21.6828 4.10527 21.6828H17.8676V39.683C17.8676 40.2883 18.2137 40.8402 18.7584 41.1041C19.3027 41.3682 19.9508 41.2971 20.4256 40.9219L24.9203 37.3693L29.415 40.9219C29.6992 41.1465 30.0453 41.2621 30.3941 41.2621C30.6281 41.2621 30.8635 41.2102 31.0822 41.1043C31.6271 40.8404 31.973 40.2885 31.973 39.6832V21.683H45.735C46.2572 21.683 46.6824 22.108 46.6824 22.6305V38.7838H46.682ZM46.682 18.525H45.7346H30.3937H21.0254V9.67246H46.682V18.525ZM46.682 6.51445H21.0254V3.15781H46.682V6.51445ZM96.8422 96.842H71.185V87.9896H96.842V96.842H96.8422ZM96.8422 84.8316H71.185V81.4748H84.6047H96.842V84.8316H96.8422Z" fill="url(#paint6_linear)"/>
<defs>
<linearGradient id="paint0_linear" x1="36.7344" y1="42.9581" x2="36.7344" y2="48.9354" gradientUnits="userSpaceOnUse">
<stop stop-color="#FCEABB"/>
<stop offset="1" stop-color="#E9C154"/>
</linearGradient>
<linearGradient id="paint1_linear" x1="84.1418" y1="87.8004" x2="84.1418" y2="93.7777" gradientUnits="userSpaceOnUse">
<stop stop-color="#FCEABB"/>
<stop offset="1" stop-color="#E9C154"/>
</linearGradient>
<linearGradient id="paint2_linear" x1="33.826" y1="9.48448" x2="33.826" y2="15.4618" gradientUnits="userSpaceOnUse">
<stop stop-color="#FCEABB"/>
<stop offset="1" stop-color="#E9C154"/>
</linearGradient>
<linearGradient id="paint3_linear" x1="36.7344" y1="48.2213" x2="36.7344" y2="54.1986" gradientUnits="userSpaceOnUse">
<stop stop-color="#FCEABB"/>
<stop offset="1" stop-color="#E9C154"/>
</linearGradient>
<linearGradient id="paint4_linear" x1="36.7342" y1="81.6952" x2="36.7342" y2="87.6725" gradientUnits="userSpaceOnUse">
<stop stop-color="#FCEABB"/>
<stop offset="1" stop-color="#E9C154"/>
</linearGradient>
<linearGradient id="paint5_linear" x1="36.7342" y1="86.9581" x2="36.7342" y2="92.9354" gradientUnits="userSpaceOnUse">
<stop stop-color="#FCEABB"/>
<stop offset="1" stop-color="#E9C154"/>
</linearGradient>
<linearGradient id="paint6_linear" x1="46.8518" y1="-89.2859" x2="46.8518" y2="100" gradientUnits="userSpaceOnUse">
<stop stop-color="#FCEABB"/>
<stop offset="1" stop-color="#E9C154"/>
</linearGradient>
</defs>
</svg>
