<svg width="90" height="100" viewBox="0 0 90 100" fill="none" xmlns="http://www.w3.org/2000/svg">
<path d="M77.2381 61.6873H66.4728C65.6636 61.6873 65.008 62.3429 65.008 63.1521C65.008 63.9612 65.6636 64.6169 66.4728 64.6169H77.2381C78.0472 64.6169 78.7029 63.9612 78.7029 63.1521C78.7029 62.3429 78.047 61.6873 77.2381 61.6873Z" fill="white"/>
<path d="M77.2381 61.6873H66.4728C65.6636 61.6873 65.008 62.3429 65.008 63.1521C65.008 63.9612 65.6636 64.6169 66.4728 64.6169H77.2381C78.0472 64.6169 78.7029 63.9612 78.7029 63.1521C78.7029 62.3429 78.047 61.6873 77.2381 61.6873Z" fill="url(#paint0_linear)"/>
<path d="M77.2381 67.7798H66.4728C65.6636 67.7798 65.008 68.4354 65.008 69.2446C65.008 70.0538 65.6636 70.7094 66.4728 70.7094H77.2381C78.0472 70.7094 78.7029 70.0538 78.7029 69.2446C78.7029 68.4354 78.047 67.7798 77.2381 67.7798Z" fill="white"/>
<path d="M77.2381 67.7798H66.4728C65.6636 67.7798 65.008 68.4354 65.008 69.2446C65.008 70.0538 65.6636 70.7094 66.4728 70.7094H77.2381C78.0472 70.7094 78.7029 70.0538 78.7029 69.2446C78.7029 68.4354 78.047 67.7798 77.2381 67.7798Z" fill="url(#paint1_linear)"/>
<path d="M88.0704 61.1989C88.8796 61.1989 89.5352 60.5432 89.5352 59.7341V23.8384C89.5352 21.5907 87.7068 19.7623 85.4593 19.7623H82.1318C81.0395 19.7623 80.0491 20.2062 79.3313 20.9232H74.2861C73.7476 19.4226 72.3148 18.3445 70.6314 18.3445H60.399V16.6822L61.8691 13.2885C62.1929 12.5409 62.3572 11.7487 62.3572 10.9343C62.3572 9.74875 62.2119 8.5642 61.9252 7.41403L60.5261 1.7981C60.2627 0.7407 59.3176 0.00223565 58.2276 0.00223565H53.5087C52.4187 0.00223565 51.4734 0.740895 51.2099 1.7983L49.8109 7.41422C49.5244 8.56499 49.3791 9.74915 49.3791 10.9345C49.3791 11.7495 49.5433 12.5417 49.8671 13.2887L51.337 16.6824V18.3447H43.0991C43.9163 16.5455 44.3752 14.5506 44.3752 12.4491C44.3752 7.5193 41.8679 2.99359 37.6679 0.343246H37.6677C36.2055 -0.579591 34.2949 0.470783 34.2949 2.19907L34.299 13.6417L30.0708 16.0877L25.8381 13.6489V2.19907C25.8381 0.477228 23.9348 -0.583497 22.4653 0.343246C18.2653 2.99359 15.7579 7.5193 15.7579 12.4491C15.7579 14.7034 16.2837 16.8367 17.2163 18.7353C16.3054 19.1769 15.5937 19.9621 15.2486 20.9232H10.2039C9.48617 20.2062 8.49556 19.7623 7.40339 19.7623H4.07591C1.82849 19.7623 0 21.5907 0 23.8384V95.9241C0 98.1715 1.82849 100 4.07591 100H85.4593C87.7068 100 89.5352 98.1715 89.5352 95.9241V66.5699C89.5352 65.7607 88.8796 65.1051 88.0704 65.1051C87.2613 65.1051 86.6056 65.7607 86.6056 66.5699V95.9241C86.6056 96.5561 86.0914 97.0704 85.4593 97.0704H4.07591C3.44389 97.0704 2.92964 96.5561 2.92964 95.9241V23.8384C2.92964 23.2063 3.44389 22.6919 4.07591 22.6919H7.4032C7.98776 22.6919 8.43853 23.1751 8.43853 23.7272V49.5165C8.43853 51.4834 10.0387 53.0838 12.0059 53.0838H77.5292C79.4961 53.0838 81.0965 51.4836 81.0965 49.5165C81.0965 46.8382 81.0965 26.6936 81.0965 23.7272C81.0965 23.179 81.5451 22.6919 82.1318 22.6919H85.4593C86.0914 22.6919 86.6056 23.2063 86.6056 23.8384V59.7339C86.6056 60.543 87.2613 61.1989 88.0704 61.1989ZM64.8909 50.1541C64.998 49.7901 65.0579 49.4061 65.0579 49.0079V47.9706C65.0579 45.723 63.2294 43.8945 60.9818 43.8945H60.3992V32.629H70.6317C72.315 32.629 73.7478 31.5509 74.2863 30.0504H78.1671V35.7016L65.7985 50.1539H64.8909V50.1541ZM57.9723 14.9139H53.7638L52.6745 12.3993H59.0617L57.9723 14.9139ZM54.2669 17.8435H57.4694V43.8945H54.2669C54.2669 35.2022 54.2669 26.5178 54.2669 17.8435ZM78.1669 27.1207H74.5169V23.853H78.1669V27.1207ZM70.6314 21.2743C71.1586 21.2743 71.5875 21.7032 71.5875 22.2306V28.7436C71.5875 29.2707 71.1588 29.6998 70.6314 29.6998H60.399V21.2745H70.6314V21.2743ZM52.6536 8.12241L53.9468 2.93187H57.7895L59.0826 8.12222V8.12241C59.1932 8.56596 59.2773 9.01615 59.335 9.46966H52.4015C52.4589 9.01615 52.5431 8.56596 52.6536 8.12241ZM51.3372 21.2743V29.6996H47.918C47.1088 29.6996 46.4531 30.3553 46.4531 31.1644C46.4531 31.9736 47.1088 32.6292 47.918 32.6292H51.3372V43.8947H50.7546C48.507 43.8947 46.6785 45.7232 46.6785 47.9708V49.0081C46.6785 49.4063 46.7385 49.7903 46.8455 50.1543H37.6631V32.6292H41.0823C41.8915 32.6292 42.5471 31.9736 42.5471 31.1644C42.5471 30.3553 41.8915 29.6996 41.0823 29.6996H37.6631V24.5665C39.0628 23.6858 40.2987 22.57 41.3175 21.2743H51.3372ZM22.9088 3.62327V13.6489C22.9088 14.6887 23.4682 15.658 24.3693 16.1785L28.6066 18.625C29.5075 19.1445 30.6264 19.1447 31.5274 18.6248L35.7641 16.1787C36.665 15.6588 37.2248 14.6893 37.2248 13.6489V3.62307C39.89 5.78027 41.4456 8.99037 41.4456 12.4491C41.4456 18.8552 36.1723 23.8278 30.0667 23.8278C23.8537 23.8278 18.6878 18.7492 18.6878 12.4491C18.688 8.99037 20.2434 5.78027 22.9088 3.62327ZM11.3682 30.0504H15.2492C15.7876 31.5509 17.2204 32.629 18.904 32.629H22.4709V48.6749L11.3682 35.7015V30.0504ZM22.4709 24.5663V29.6994H18.904C18.3768 29.6994 17.9478 29.2705 17.9478 28.7432C17.9478 21.4536 17.9478 27.0133 17.9478 22.2302C17.9478 21.7314 18.3321 21.3212 18.82 21.2784C19.8382 22.5724 21.0727 23.6868 22.4709 24.5663ZM15.0181 27.1207H11.3682V23.853H15.0181V27.1207ZM12.0059 50.1541C11.6602 50.1541 11.3684 49.8622 11.3684 49.5165V40.2074L19.8807 50.1541H12.0059ZM31.5317 50.1541V31.9259C31.5317 31.1168 30.8761 30.4611 30.0669 30.4611C29.2577 30.4611 28.6021 31.1168 28.6021 31.9259V50.1541H25.4004V31.1642V25.9721C28.4173 27.0162 31.7116 27.0178 34.733 25.9721V31.1642V50.1541H31.5317ZM50.7544 50.1541C50.1224 50.1541 49.608 49.6399 49.608 49.0079V47.9706C49.608 47.3386 50.1224 46.8241 50.7544 46.8241H60.9816C61.6136 46.8241 62.1281 47.3386 62.1281 47.9706V49.0079C62.1281 49.6399 61.6136 50.1541 60.9816 50.1541H50.7544ZM78.1669 49.5165C78.1669 49.8622 77.8749 50.1541 77.5292 50.1541H69.6545L78.1669 40.2076V49.5165Z" fill="white"/>
<path d="M88.0704 61.1989C88.8796 61.1989 89.5352 60.5432 89.5352 59.7341V23.8384C89.5352 21.5907 87.7068 19.7623 85.4593 19.7623H82.1318C81.0395 19.7623 80.0491 20.2062 79.3313 20.9232H74.2861C73.7476 19.4226 72.3148 18.3445 70.6314 18.3445H60.399V16.6822L61.8691 13.2885C62.1929 12.5409 62.3572 11.7487 62.3572 10.9343C62.3572 9.74875 62.2119 8.5642 61.9252 7.41403L60.5261 1.7981C60.2627 0.7407 59.3176 0.00223565 58.2276 0.00223565H53.5087C52.4187 0.00223565 51.4734 0.740895 51.2099 1.7983L49.8109 7.41422C49.5244 8.56499 49.3791 9.74915 49.3791 10.9345C49.3791 11.7495 49.5433 12.5417 49.8671 13.2887L51.337 16.6824V18.3447H43.0991C43.9163 16.5455 44.3752 14.5506 44.3752 12.4491C44.3752 7.5193 41.8679 2.99359 37.6679 0.343246H37.6677C36.2055 -0.579591 34.2949 0.470783 34.2949 2.19907L34.299 13.6417L30.0708 16.0877L25.8381 13.6489V2.19907C25.8381 0.477228 23.9348 -0.583497 22.4653 0.343246C18.2653 2.99359 15.7579 7.5193 15.7579 12.4491C15.7579 14.7034 16.2837 16.8367 17.2163 18.7353C16.3054 19.1769 15.5937 19.9621 15.2486 20.9232H10.2039C9.48617 20.2062 8.49556 19.7623 7.40339 19.7623H4.07591C1.82849 19.7623 0 21.5907 0 23.8384V95.9241C0 98.1715 1.82849 100 4.07591 100H85.4593C87.7068 100 89.5352 98.1715 89.5352 95.9241V66.5699C89.5352 65.7607 88.8796 65.1051 88.0704 65.1051C87.2613 65.1051 86.6056 65.7607 86.6056 66.5699V95.9241C86.6056 96.5561 86.0914 97.0704 85.4593 97.0704H4.07591C3.44389 97.0704 2.92964 96.5561 2.92964 95.9241V23.8384C2.92964 23.2063 3.44389 22.6919 4.07591 22.6919H7.4032C7.98776 22.6919 8.43853 23.1751 8.43853 23.7272V49.5165C8.43853 51.4834 10.0387 53.0838 12.0059 53.0838H77.5292C79.4961 53.0838 81.0965 51.4836 81.0965 49.5165C81.0965 46.8382 81.0965 26.6936 81.0965 23.7272C81.0965 23.179 81.5451 22.6919 82.1318 22.6919H85.4593C86.0914 22.6919 86.6056 23.2063 86.6056 23.8384V59.7339C86.6056 60.543 87.2613 61.1989 88.0704 61.1989ZM64.8909 50.1541C64.998 49.7901 65.0579 49.4061 65.0579 49.0079V47.9706C65.0579 45.723 63.2294 43.8945 60.9818 43.8945H60.3992V32.629H70.6317C72.315 32.629 73.7478 31.5509 74.2863 30.0504H78.1671V35.7016L65.7985 50.1539H64.8909V50.1541ZM57.9723 14.9139H53.7638L52.6745 12.3993H59.0617L57.9723 14.9139ZM54.2669 17.8435H57.4694V43.8945H54.2669C54.2669 35.2022 54.2669 26.5178 54.2669 17.8435ZM78.1669 27.1207H74.5169V23.853H78.1669V27.1207ZM70.6314 21.2743C71.1586 21.2743 71.5875 21.7032 71.5875 22.2306V28.7436C71.5875 29.2707 71.1588 29.6998 70.6314 29.6998H60.399V21.2745H70.6314V21.2743ZM52.6536 8.12241L53.9468 2.93187H57.7895L59.0826 8.12222V8.12241C59.1932 8.56596 59.2773 9.01615 59.335 9.46966H52.4015C52.4589 9.01615 52.5431 8.56596 52.6536 8.12241ZM51.3372 21.2743V29.6996H47.918C47.1088 29.6996 46.4531 30.3553 46.4531 31.1644C46.4531 31.9736 47.1088 32.6292 47.918 32.6292H51.3372V43.8947H50.7546C48.507 43.8947 46.6785 45.7232 46.6785 47.9708V49.0081C46.6785 49.4063 46.7385 49.7903 46.8455 50.1543H37.6631V32.6292H41.0823C41.8915 32.6292 42.5471 31.9736 42.5471 31.1644C42.5471 30.3553 41.8915 29.6996 41.0823 29.6996H37.6631V24.5665C39.0628 23.6858 40.2987 22.57 41.3175 21.2743H51.3372ZM22.9088 3.62327V13.6489C22.9088 14.6887 23.4682 15.658 24.3693 16.1785L28.6066 18.625C29.5075 19.1445 30.6264 19.1447 31.5274 18.6248L35.7641 16.1787C36.665 15.6588 37.2248 14.6893 37.2248 13.6489V3.62307C39.89 5.78027 41.4456 8.99037 41.4456 12.4491C41.4456 18.8552 36.1723 23.8278 30.0667 23.8278C23.8537 23.8278 18.6878 18.7492 18.6878 12.4491C18.688 8.99037 20.2434 5.78027 22.9088 3.62327ZM11.3682 30.0504H15.2492C15.7876 31.5509 17.2204 32.629 18.904 32.629H22.4709V48.6749L11.3682 35.7015V30.0504ZM22.4709 24.5663V29.6994H18.904C18.3768 29.6994 17.9478 29.2705 17.9478 28.7432C17.9478 21.4536 17.9478 27.0133 17.9478 22.2302C17.9478 21.7314 18.3321 21.3212 18.82 21.2784C19.8382 22.5724 21.0727 23.6868 22.4709 24.5663ZM15.0181 27.1207H11.3682V23.853H15.0181V27.1207ZM12.0059 50.1541C11.6602 50.1541 11.3684 49.8622 11.3684 49.5165V40.2074L19.8807 50.1541H12.0059ZM31.5317 50.1541V31.9259C31.5317 31.1168 30.8761 30.4611 30.0669 30.4611C29.2577 30.4611 28.6021 31.1168 28.6021 31.9259V50.1541H25.4004V31.1642V25.9721C28.4173 27.0162 31.7116 27.0178 34.733 25.9721V31.1642V50.1541H31.5317ZM50.7544 50.1541C50.1224 50.1541 49.608 49.6399 49.608 49.0079V47.9706C49.608 47.3386 50.1224 46.8241 50.7544 46.8241H60.9816C61.6136 46.8241 62.1281 47.3386 62.1281 47.9706V49.0079C62.1281 49.6399 61.6136 50.1541 60.9816 50.1541H50.7544ZM78.1669 49.5165C78.1669 49.8622 77.8749 50.1541 77.5292 50.1541H69.6545L78.1669 40.2076V49.5165Z" fill="url(#paint2_linear)"/>
<defs>
<linearGradient id="paint0_linear" x1="71.4243" y1="59.0715" x2="71.4243" y2="64.6169" gradientUnits="userSpaceOnUse">
<stop stop-color="#FCEABB"/>
<stop offset="1" stop-color="#E9C154"/>
</linearGradient>
<linearGradient id="paint1_linear" x1="71.4243" y1="65.164" x2="71.4243" y2="70.7094" gradientUnits="userSpaceOnUse">
<stop stop-color="#FCEABB"/>
<stop offset="1" stop-color="#E9C154"/>
</linearGradient>
<linearGradient id="paint2_linear" x1="41.9489" y1="-89.2857" x2="41.9489" y2="100" gradientUnits="userSpaceOnUse">
<stop stop-color="#FCEABB"/>
<stop offset="1" stop-color="#E9C154"/>
</linearGradient>
</defs>
</svg>
