<svg width="112" height="100" viewBox="0 0 112 100" fill="none" xmlns="http://www.w3.org/2000/svg">
<path d="M78.9527 36.7424C66.1478 30.7712 66.6937 30.8315 65.8244 31.148C64.9613 31.4623 65.3491 31.0352 59.3632 43.8727C58.8572 44.9586 59.6558 46.1967 60.8425 46.1967C61.4574 46.1967 62.0466 45.8473 62.3239 45.2533L66.1642 37.0173L73.9859 58.5073C74.2272 59.1704 74.8535 59.5821 75.5209 59.5821C76.6551 59.5821 77.4419 58.452 77.0554 57.3899L69.1961 35.7966L77.5726 39.7029C78.3898 40.0841 79.3616 39.7303 79.7428 38.9126C80.124 38.0954 79.7702 37.1236 78.9527 36.7424Z" fill="white"/>
<path d="M78.9527 36.7424C66.1478 30.7712 66.6937 30.8315 65.8244 31.148C64.9613 31.4623 65.3491 31.0352 59.3632 43.8727C58.8572 44.9586 59.6558 46.1967 60.8425 46.1967C61.4574 46.1967 62.0466 45.8473 62.3239 45.2533L66.1642 37.0173L73.9859 58.5073C74.2272 59.1704 74.8535 59.5821 75.5209 59.5821C76.6551 59.5821 77.4419 58.452 77.0554 57.3899L69.1961 35.7966L77.5726 39.7029C78.3898 40.0841 79.3616 39.7303 79.7428 38.9126C80.124 38.0954 79.7702 37.1236 78.9527 36.7424Z" fill="url(#paint0_linear)"/>
<path d="M58.6579 83.6493C57.4409 80.3055 53.7002 78.4563 50.2289 79.7191C46.8219 80.9596 45.0584 84.741 46.2985 88.1483C47.5177 91.4975 51.2634 93.3401 54.7275 92.0787C58.1432 90.8354 59.901 87.0654 58.6579 83.6493ZM53.6102 89.0091C51.8576 89.6471 49.9789 88.7096 49.3679 87.031C48.5854 84.8809 50.1817 82.5874 52.478 82.5874C53.8642 82.5874 55.1143 83.4631 55.5888 84.7665C56.2143 86.486 55.3298 88.3833 53.6102 89.0091Z" fill="white"/>
<path d="M58.6579 83.6493C57.4409 80.3055 53.7002 78.4563 50.2289 79.7191C46.8219 80.9596 45.0584 84.741 46.2985 88.1483C47.5177 91.4975 51.2634 93.3401 54.7275 92.0787C58.1432 90.8354 59.901 87.0654 58.6579 83.6493ZM53.6102 89.0091C51.8576 89.6471 49.9789 88.7096 49.3679 87.031C48.5854 84.8809 50.1817 82.5874 52.478 82.5874C53.8642 82.5874 55.1143 83.4631 55.5888 84.7665C56.2143 86.486 55.3298 88.3833 53.6102 89.0091Z" fill="url(#paint1_linear)"/>
<path d="M111.242 64.8468L111.026 64.2528C110.137 61.8107 107.427 60.5473 104.984 61.4358L102.685 62.2727C102.646 61.1943 103.495 63.7866 88.6448 23.5148C88.3325 22.6688 87.3941 22.2358 86.5474 22.5475C85.7009 22.8598 85.2681 23.7984 85.58 24.6449L99.3364 61.9512C99.6093 62.701 99.2211 63.5335 98.4714 63.8062C96.9342 64.3656 64.6013 76.1338 63.1305 76.669C61.9018 75.2523 60.4123 74.1263 58.8816 73.3452L43.0102 29.7396C42.7373 28.9899 43.1252 28.1576 43.8747 27.8848C43.8787 27.8833 80.1673 14.6752 80.5398 14.5398C81.2884 14.2666 82.1214 14.6543 82.3946 15.4047L83.8252 19.3358C84.1337 20.1834 85.0697 20.6199 85.9185 20.3121C86.7661 20.0035 87.2031 19.0664 86.8946 18.2188L85.4639 14.2877C84.5728 11.84 81.8713 10.5801 79.4226 11.4706L72.4609 14.0043C72.423 13.0098 72.5051 13.4583 68.7363 3.10284C67.8619 0.702185 65.1779 -0.617619 62.6949 0.285703L37.2071 9.56245C34.7651 10.4514 33.501 13.1614 34.39 15.6038L37.8342 25.067C38.2287 26.1514 39.0022 27.0251 39.9698 27.5666C39.5794 28.5888 39.5387 29.7499 39.9415 30.8564L54.9231 72.0176C54.1962 71.8884 53.4538 71.8159 52.7008 71.8041L30.5164 10.8528C32.4254 5.63854 27.3562 0.504618 22.094 2.41865C20.5809 2.96909 19.3934 4.02141 18.6475 5.31878L3.10568 10.9759C1.92267 11.4066 0.978175 12.272 0.446028 13.413C-0.282598 14.9761 -0.013366 16.1863 0.505059 17.6113C1.45195 20.2124 4.23379 21.2697 6.54645 20.4287L21.3374 15.0451L43.2472 75.242C39.0229 78.8982 37.1439 84.9797 39.2329 90.7196C41.8416 97.8861 49.8593 101.852 57.2995 99.1445C62.9386 97.0921 66.4733 91.7924 66.5693 86.1218L93.2884 76.3776C94.136 76.0685 94.5721 75.1312 94.2634 74.2838C93.9546 73.4363 93.017 72.9993 92.1697 73.3088L66.2223 82.7714C66.2158 82.742 65.8978 81.1745 65.0167 79.4587C67.1673 78.6758 104.3 65.1611 106.102 64.5052C106.851 64.2318 107.684 64.6198 107.957 65.37L108.173 65.964C108.446 66.714 108.058 67.5465 107.308 67.8192L97.9632 71.2203C97.1156 71.529 96.6787 72.4661 96.9871 73.3136C97.2956 74.161 98.2318 74.5977 99.0804 74.2897L108.425 70.8884C110.867 69.999 112.131 67.289 111.242 64.8468ZM55.0816 6.53228L56.2453 9.72931C56.5182 10.4795 56.13 11.312 55.3805 11.5845L50.0736 13.5158C49.3023 13.7965 48.4844 13.3805 48.2188 12.6506L47.0552 9.45354L55.0816 6.53228ZM42.2635 24.9032C41.6573 24.9032 41.1108 24.5203 40.9032 23.95L37.4591 14.487C37.1862 13.7371 37.5742 12.9048 38.3241 12.632L43.9856 10.5712L45.1492 13.7682C45.8245 15.6237 47.6044 16.8707 49.5787 16.8709C50.6509 16.8709 50.7119 16.7598 56.4975 14.6543C58.9396 13.7654 60.2034 11.0552 59.3144 8.61273L58.1508 5.41549L63.8121 3.35486C64.5784 3.07561 65.3998 3.48599 65.6671 4.22007C69.4411 14.5899 69.4008 14.0662 69.0632 14.79C68.7025 15.5644 70.1658 14.8399 42.7582 24.8157C42.7582 24.8152 42.5427 24.9032 42.2635 24.9032ZM4.93476 17.4471C4.33051 17.4471 3.78246 17.0661 3.574 16.4941C3.34964 15.8774 3.11112 15.4263 3.40606 14.7931C3.75806 14.0383 3.12397 14.4444 17.786 9.10807C17.876 10.2752 18.2983 11.4521 18.9923 12.4221C4.33748 17.7566 5.29548 17.4471 4.93476 17.4471ZM21.3089 7.28748C21.8482 6.04 23.0565 5.28719 24.343 5.28719C26.9277 5.28719 28.5416 8.15094 27.1347 10.3684C26.6435 11.1471 25.8236 11.7115 24.8749 11.8646C22.351 12.2811 20.2555 9.7256 21.3089 7.28748ZM24.8534 15.1551C25.0712 15.1155 26.5916 15.0782 28.1671 13.949L49.1906 71.7109C48.04 71.9723 46.9274 72.3768 45.8766 72.917L24.8534 15.1551ZM52.4795 96.7314C47.9444 96.7314 43.8543 93.8666 42.3025 89.6024C38.9216 80.3141 48.8497 71.6303 57.615 76.371C60.8033 78.0903 62.968 81.3161 63.2708 85.0244C63.7755 91.2884 58.8256 96.7314 52.4795 96.7314Z" fill="white"/>
<path d="M111.242 64.8468L111.026 64.2528C110.137 61.8107 107.427 60.5473 104.984 61.4358L102.685 62.2727C102.646 61.1943 103.495 63.7866 88.6448 23.5148C88.3325 22.6688 87.3941 22.2358 86.5474 22.5475C85.7009 22.8598 85.2681 23.7984 85.58 24.6449L99.3364 61.9512C99.6093 62.701 99.2211 63.5335 98.4714 63.8062C96.9342 64.3656 64.6013 76.1338 63.1305 76.669C61.9018 75.2523 60.4123 74.1263 58.8816 73.3452L43.0102 29.7396C42.7373 28.9899 43.1252 28.1576 43.8747 27.8848C43.8787 27.8833 80.1673 14.6752 80.5398 14.5398C81.2884 14.2666 82.1214 14.6543 82.3946 15.4047L83.8252 19.3358C84.1337 20.1834 85.0697 20.6199 85.9185 20.3121C86.7661 20.0035 87.2031 19.0664 86.8946 18.2188L85.4639 14.2877C84.5728 11.84 81.8713 10.5801 79.4226 11.4706L72.4609 14.0043C72.423 13.0098 72.5051 13.4583 68.7363 3.10284C67.8619 0.702185 65.1779 -0.617619 62.6949 0.285703L37.2071 9.56245C34.7651 10.4514 33.501 13.1614 34.39 15.6038L37.8342 25.067C38.2287 26.1514 39.0022 27.0251 39.9698 27.5666C39.5794 28.5888 39.5387 29.7499 39.9415 30.8564L54.9231 72.0176C54.1962 71.8884 53.4538 71.8159 52.7008 71.8041L30.5164 10.8528C32.4254 5.63854 27.3562 0.504618 22.094 2.41865C20.5809 2.96909 19.3934 4.02141 18.6475 5.31878L3.10568 10.9759C1.92267 11.4066 0.978175 12.272 0.446028 13.413C-0.282598 14.9761 -0.013366 16.1863 0.505059 17.6113C1.45195 20.2124 4.23379 21.2697 6.54645 20.4287L21.3374 15.0451L43.2472 75.242C39.0229 78.8982 37.1439 84.9797 39.2329 90.7196C41.8416 97.8861 49.8593 101.852 57.2995 99.1445C62.9386 97.0921 66.4733 91.7924 66.5693 86.1218L93.2884 76.3776C94.136 76.0685 94.5721 75.1312 94.2634 74.2838C93.9546 73.4363 93.017 72.9993 92.1697 73.3088L66.2223 82.7714C66.2158 82.742 65.8978 81.1745 65.0167 79.4587C67.1673 78.6758 104.3 65.1611 106.102 64.5052C106.851 64.2318 107.684 64.6198 107.957 65.37L108.173 65.964C108.446 66.714 108.058 67.5465 107.308 67.8192L97.9632 71.2203C97.1156 71.529 96.6787 72.4661 96.9871 73.3136C97.2956 74.161 98.2318 74.5977 99.0804 74.2897L108.425 70.8884C110.867 69.999 112.131 67.289 111.242 64.8468ZM55.0816 6.53228L56.2453 9.72931C56.5182 10.4795 56.13 11.312 55.3805 11.5845L50.0736 13.5158C49.3023 13.7965 48.4844 13.3805 48.2188 12.6506L47.0552 9.45354L55.0816 6.53228ZM42.2635 24.9032C41.6573 24.9032 41.1108 24.5203 40.9032 23.95L37.4591 14.487C37.1862 13.7371 37.5742 12.9048 38.3241 12.632L43.9856 10.5712L45.1492 13.7682C45.8245 15.6237 47.6044 16.8707 49.5787 16.8709C50.6509 16.8709 50.7119 16.7598 56.4975 14.6543C58.9396 13.7654 60.2034 11.0552 59.3144 8.61273L58.1508 5.41549L63.8121 3.35486C64.5784 3.07561 65.3998 3.48599 65.6671 4.22007C69.4411 14.5899 69.4008 14.0662 69.0632 14.79C68.7025 15.5644 70.1658 14.8399 42.7582 24.8157C42.7582 24.8152 42.5427 24.9032 42.2635 24.9032ZM4.93476 17.4471C4.33051 17.4471 3.78246 17.0661 3.574 16.4941C3.34964 15.8774 3.11112 15.4263 3.40606 14.7931C3.75806 14.0383 3.12397 14.4444 17.786 9.10807C17.876 10.2752 18.2983 11.4521 18.9923 12.4221C4.33748 17.7566 5.29548 17.4471 4.93476 17.4471ZM21.3089 7.28748C21.8482 6.04 23.0565 5.28719 24.343 5.28719C26.9277 5.28719 28.5416 8.15094 27.1347 10.3684C26.6435 11.1471 25.8236 11.7115 24.8749 11.8646C22.351 12.2811 20.2555 9.7256 21.3089 7.28748ZM24.8534 15.1551C25.0712 15.1155 26.5916 15.0782 28.1671 13.949L49.1906 71.7109C48.04 71.9723 46.9274 72.3768 45.8766 72.917L24.8534 15.1551ZM52.4795 96.7314C47.9444 96.7314 43.8543 93.8666 42.3025 89.6024C38.9216 80.3141 48.8497 71.6303 57.615 76.371C60.8033 78.0903 62.968 81.3161 63.2708 85.0244C63.7755 91.2884 58.8256 96.7314 52.4795 96.7314Z" fill="url(#paint2_linear)"/>
<defs>
<linearGradient id="paint0_linear" x1="68.9011" y1="5.54637" x2="68.9011" y2="59.5821" gradientUnits="userSpaceOnUse">
<stop stop-color="#FCEABB"/>
<stop offset="1" stop-color="#E9C154"/>
</linearGradient>
<linearGradient id="paint1_linear" x1="52.0651" y1="67.5721" x2="52.0651" y2="92.4777" gradientUnits="userSpaceOnUse">
<stop stop-color="#FCEABB"/>
<stop offset="1" stop-color="#E9C154"/>
</linearGradient>
<linearGradient id="paint2_linear" x1="52.2522" y1="-89.2857" x2="52.2522" y2="100" gradientUnits="userSpaceOnUse">
<stop stop-color="#FCEABB"/>
<stop offset="1" stop-color="#E9C154"/>
</linearGradient>
</defs>
</svg>
