<svg width="88" height="100" viewBox="0 0 88 100" fill="none" xmlns="http://www.w3.org/2000/svg">
<path d="M86.4008 11.1775C87.2102 11.1775 87.8663 10.5213 87.8663 9.71197V3.61309C87.8663 1.62091 86.2456 0 84.2533 0H3.61309C1.62071 0 0 1.62071 0 3.61309V98.0662C0 99.1326 0.867416 100 1.93376 100H6.04104C7.03859 100 7.95564 99.4159 8.37733 98.5122L9.05286 97.0646H78.9505L79.4763 98.3795C79.8701 99.3639 80.8098 100 81.8701 100H85.9326C86.9989 100 87.8663 99.1326 87.8663 98.0662V15.8673C87.8663 15.0579 87.2102 14.4018 86.4008 14.4018C85.5914 14.4018 84.9352 15.0579 84.9352 15.8673V87.8708H66.5346V2.93112H84.2533C84.6292 2.93112 84.9352 3.23693 84.9352 3.61309V9.71197C84.9352 10.5213 85.5914 11.1775 86.4008 11.1775ZM2.93112 3.61309C2.93112 3.23713 3.23713 2.93112 3.61309 2.93112H21.1359V83.1537C21.1359 83.9631 21.7921 84.6192 22.6015 84.6192C23.4108 84.6192 24.067 83.9631 24.067 83.1537V2.93112H42.4676V87.8708H2.93112V3.61309ZM84.9352 97.0689H82.109L81.5832 95.754C81.1895 94.7695 80.2497 94.1335 79.1895 94.1335H8.82794C7.83058 94.1335 6.91353 94.7173 6.49165 95.6213L5.81593 97.0691H2.93112V90.8021H84.9352V97.0689ZM63.6035 87.8708H45.3987V2.93112H63.6035V87.8708Z" fill="white"/>
<path d="M86.4008 11.1775C87.2102 11.1775 87.8663 10.5213 87.8663 9.71197V3.61309C87.8663 1.62091 86.2456 0 84.2533 0H3.61309C1.62071 0 0 1.62071 0 3.61309V98.0662C0 99.1326 0.867416 100 1.93376 100H6.04104C7.03859 100 7.95564 99.4159 8.37733 98.5122L9.05286 97.0646H78.9505L79.4763 98.3795C79.8701 99.3639 80.8098 100 81.8701 100H85.9326C86.9989 100 87.8663 99.1326 87.8663 98.0662V15.8673C87.8663 15.0579 87.2102 14.4018 86.4008 14.4018C85.5914 14.4018 84.9352 15.0579 84.9352 15.8673V87.8708H66.5346V2.93112H84.2533C84.6292 2.93112 84.9352 3.23693 84.9352 3.61309V9.71197C84.9352 10.5213 85.5914 11.1775 86.4008 11.1775ZM2.93112 3.61309C2.93112 3.23713 3.23713 2.93112 3.61309 2.93112H21.1359V83.1537C21.1359 83.9631 21.7921 84.6192 22.6015 84.6192C23.4108 84.6192 24.067 83.9631 24.067 83.1537V2.93112H42.4676V87.8708H2.93112V3.61309ZM84.9352 97.0689H82.109L81.5832 95.754C81.1895 94.7695 80.2497 94.1335 79.1895 94.1335H8.82794C7.83058 94.1335 6.91353 94.7173 6.49165 95.6213L5.81593 97.0691H2.93112V90.8021H84.9352V97.0689ZM63.6035 87.8708H45.3987V2.93112H63.6035V87.8708Z" fill="url(#paint0_linear)"/>
<path d="M16.9261 42.322C16.1167 42.322 15.4605 42.9782 15.4605 43.7876V47.0144C15.4605 47.8237 16.1167 48.4799 16.9261 48.4799C17.7354 48.4799 18.3916 47.8237 18.3916 47.0144V43.7876C18.3916 42.9782 17.7354 42.322 16.9261 42.322Z" fill="white"/>
<path d="M16.9261 42.322C16.1167 42.322 15.4605 42.9782 15.4605 43.7876V47.0144C15.4605 47.8237 16.1167 48.4799 16.9261 48.4799C17.7354 48.4799 18.3916 47.8237 18.3916 47.0144V43.7876C18.3916 42.9782 17.7354 42.322 16.9261 42.322Z" fill="url(#paint1_linear)"/>
<path d="M28.6683 42.322C27.8589 42.322 27.2028 42.9782 27.2028 43.7876V47.0144C27.2028 47.8237 27.8589 48.4799 28.6683 48.4799C29.4777 48.4799 30.1339 47.8237 30.1339 47.0144V43.7876C30.1339 42.9782 29.4777 42.322 28.6683 42.322Z" fill="white"/>
<path d="M28.6683 42.322C27.8589 42.322 27.2028 42.9782 27.2028 43.7876V47.0144C27.2028 47.8237 27.8589 48.4799 28.6683 48.4799C29.4777 48.4799 30.1339 47.8237 30.1339 47.0144V43.7876C30.1339 42.9782 29.4777 42.322 28.6683 42.322Z" fill="url(#paint2_linear)"/>
<path d="M59.5895 48.4799C60.3988 48.4799 61.055 47.8237 61.055 47.0144V43.7876C61.055 42.9782 60.3988 42.322 59.5895 42.322C58.7801 42.322 58.1239 42.9782 58.1239 43.7876V47.0144C58.1239 47.8237 58.7801 48.4799 59.5895 48.4799Z" fill="white"/>
<path d="M59.5895 48.4799C60.3988 48.4799 61.055 47.8237 61.055 47.0144V43.7876C61.055 42.9782 60.3988 42.322 59.5895 42.322C58.7801 42.322 58.1239 42.9782 58.1239 43.7876V47.0144C58.1239 47.8237 58.7801 48.4799 59.5895 48.4799Z" fill="url(#paint3_linear)"/>
<path d="M68.8876 43.7876V47.0144C68.8876 47.8237 69.5438 48.4799 70.3531 48.4799C71.1625 48.4799 71.8187 47.8237 71.8187 47.0144V43.7876C71.8187 42.9782 71.1625 42.322 70.3531 42.322C69.5438 42.322 68.8876 42.9782 68.8876 43.7876Z" fill="white"/>
<path d="M68.8876 43.7876V47.0144C68.8876 47.8237 69.5438 48.4799 70.3531 48.4799C71.1625 48.4799 71.8187 47.8237 71.8187 47.0144V43.7876C71.8187 42.9782 71.1625 42.322 70.3531 42.322C69.5438 42.322 68.8876 42.9782 68.8876 43.7876Z" fill="url(#paint4_linear)"/>
<defs>
<linearGradient id="paint0_linear" x1="41.167" y1="-89.2857" x2="41.167" y2="100" gradientUnits="userSpaceOnUse">
<stop stop-color="#FCEABB"/>
<stop offset="1" stop-color="#E9C154"/>
</linearGradient>
<linearGradient id="paint1_linear" x1="16.8338" y1="36.8239" x2="16.8338" y2="48.4799" gradientUnits="userSpaceOnUse">
<stop stop-color="#FCEABB"/>
<stop offset="1" stop-color="#E9C154"/>
</linearGradient>
<linearGradient id="paint2_linear" x1="28.576" y1="36.8239" x2="28.576" y2="48.4799" gradientUnits="userSpaceOnUse">
<stop stop-color="#FCEABB"/>
<stop offset="1" stop-color="#E9C154"/>
</linearGradient>
<linearGradient id="paint3_linear" x1="59.4972" y1="36.8239" x2="59.4972" y2="48.4799" gradientUnits="userSpaceOnUse">
<stop stop-color="#FCEABB"/>
<stop offset="1" stop-color="#E9C154"/>
</linearGradient>
<linearGradient id="paint4_linear" x1="70.2609" y1="36.8239" x2="70.2609" y2="48.4799" gradientUnits="userSpaceOnUse">
<stop stop-color="#FCEABB"/>
<stop offset="1" stop-color="#E9C154"/>
</linearGradient>
</defs>
</svg>
